<svg enable-background="new 0 0 600 101.1" viewBox="0 0 600 101.1" xmlns="http://www.w3.org/2000/svg"><g fill="#fff"><path d="m50.6 101.1v-19.6c20.8 0 36.8-20.6 28.9-42.4-3-8.1-9.4-14.5-17.5-17.5-21.8-7.9-42.4 8.1-42.4 28.9l-19.6.1c0-33.1 32-58.9 66.7-48.1 15.2 4.7 27.2 16.8 31.9 31.9 10.8 34.7-14.9 66.7-48 66.7z"/><g clip-rule="evenodd" fill-rule="evenodd"><path d="m50.6 81.6h-19.5v-19.5h19.5z"/><path d="m31.1 96.6h-15v-15h15z"/><path d="m16.1 81.6h-12.6v-12.6h12.6z"/></g><path d="m180 29.2c-5.8-4-13-6.1-21.4-6.1h-18.3v58.1h18.3c8.4 0 15.6-2.1 21.4-6.4 3.2-2.2 5.7-5.4 7.4-9.3s2.6-8.5 2.6-13.7c0-5.1-.9-9.7-2.6-13.6-1.7-3.8-4.2-6.8-7.4-9zm-29 3.8h5.8c6.4 0 11.7 1.3 15.7 3.7 4.4 2.7 6.7 7.8 6.7 15.1 0 7.6-2.3 12.9-6.7 15.8-3.8 2.5-9.1 3.8-15.6 3.8h-5.9z"/><path d="m202.8 22.5c-1.8 0-3.3.6-4.5 1.8s-1.9 2.7-1.9 4.4c0 1.8.6 3.3 1.9 4.5 1.2 1.2 2.7 1.9 4.5 1.9s3.3-.6 4.5-1.9c1.2-1.2 1.9-2.8 1.9-4.5 0-1.8-.6-3.3-1.9-4.4-1.2-1.2-2.8-1.8-4.5-1.8z"/><path d="m197.5 40.4h10.3v41h-10.3z"/><path d="m245.3 43.8c-3.1-2.8-6.6-4.4-10.3-4.4-5.7 0-10.4 2-14.1 5.8s-5.5 8.8-5.5 14.7c0 5.8 1.8 10.7 5.5 14.7 3.7 3.8 8.4 5.8 14.1 5.8 4 0 7.4-1.1 10.2-3.3v.9c0 3.4-.9 6-2.7 7.9-1.8 1.8-4.3 2.7-7.4 2.7-4.8 0-7.7-1.9-11.4-6.8l-7 6.7.2.3c1.5 2.1 3.8 4.2 6.9 6.2s6.9 3 11.5 3c6.1 0 11.1-1.9 14.7-5.6 3.7-3.7 5.5-8.7 5.5-14.9v-37.1h-10.1v3.4zm-2.7 24.2c-1.8 2-4.1 3-7.1 3s-5.3-1-7-3c-1.8-2-2.7-4.7-2.7-8s.9-6.1 2.7-8.1 4.1-3.1 7-3.1c3 0 5.3 1 7.1 3.1 1.8 2 2.7 4.8 2.7 8.1s-1 6-2.7 8z"/><path d="m264.2 40.4h10.3v41h-10.3z"/><path d="m269.5 22.5c-1.8 0-3.3.6-4.5 1.8s-1.9 2.7-1.9 4.4c0 1.8.6 3.3 1.9 4.5 1.2 1.2 2.7 1.9 4.5 1.9s3.3-.6 4.5-1.9c1.2-1.2 1.9-2.8 1.9-4.5 0-1.8-.6-3.3-1.9-4.4-1.2-1.2-2.8-1.8-4.5-1.8z"/><path d="m297.1 29.3h-10.1v11.1h-5.9v9.4h5.9v17c0 5.3 1.1 9.1 3.2 11.3s5.8 3.3 11.1 3.3c1.7 0 3.4-.1 5-.2h.5v-9.4l-3.5.2c-2.5 0-4.1-.4-4.9-1.3s-1.2-2.7-1.2-5.4v-15.5h9.6v-9.4h-9.6v-11.1z"/><path d="m355 23.2h10.3v58.1h-10.3z"/><path d="m469.4 66.7c-1.8 2.1-3.7 3.9-5.2 4.8-1.4.9-3.2 1.4-5.3 1.4-3 0-5.5-1.1-7.5-3.4s-3-5.2-3-8.7 1-6.4 2.9-8.6c2-2.3 4.4-3.4 7.4-3.4 3.3 0 6.8 2.1 9.8 5.6l6.8-6.5c-4.4-5.8-10.1-8.5-16.9-8.5-5.7 0-10.6 2.1-14.6 6.1s-6 9.2-6 15.3 2 11.2 6 15.3 8.9 6.1 14.6 6.1c7.5 0 13.5-3.2 17.5-9.1z"/><path d="m511.7 46.1c-1.5-2-3.5-3.7-5.9-4.9-2.5-1.2-5.3-1.8-8.5-1.8-5.8 0-10.5 2.1-14 6.3-3.4 4.2-5.2 9.3-5.2 15.4 0 6.2 1.9 11.3 5.7 15.3 3.7 3.9 8.8 5.9 14.9 5.9 6.9 0 12.7-2.8 16.9-8.4l.2-.3-6.7-6.5c-.6.8-1.5 1.6-2.3 2.4-1 1-2 1.7-3 2.2-1.5.8-3.3 1.1-5.2 1.1-2.9 0-5.2-.8-7-2.5-1.7-1.5-2.7-3.6-2.9-6.2h27.3l.1-3.8c0-2.7-.4-5.2-1.1-7.6-.7-2.3-1.8-4.6-3.3-6.6zm-22.5 9.6c.5-2 1.4-3.6 2.7-4.9 1.4-1.4 3.2-2.1 5.4-2.1 2.5 0 4.4.7 5.7 2.1 1.2 1.3 1.9 2.9 2.1 4.8h-15.9z"/><path d="m551.3 43.4c-3.1-2.7-7.4-4-12.8-4-3.4 0-6.6.8-9.5 2.2-2.7 1.4-5.3 3.6-7 6.6l.1.1 6.6 6.3c2.7-4.3 5.7-5.8 9.7-5.8 2.2 0 3.9.6 5.3 1.7s2 2.6 2 4.4v2c-2.6-.8-5.1-1.2-7.6-1.2-5.1 0-9.3 1.2-12.4 3.6s-4.7 5.9-4.7 10.2c0 3.8 1.3 7 4 9.3 2.7 2.2 6 3.4 9.9 3.4s7.6-1.6 10.9-4.3v3.4h10.1v-26.3c.2-5-1.4-8.9-4.6-11.6zm-18.3 22.3c1.2-.8 2.8-1.2 4.9-1.2 2.5 0 5.1.5 7.8 1.5v4c-2.2 2.1-5.2 3.1-8.9 3.1-1.8 0-3.2-.4-4.1-1.2s-1.4-1.7-1.4-3c0-1.4.6-2.4 1.7-3.2z"/><path d="m595.7 44.2c-2.9-3.2-6.9-4.8-12-4.8-4.1 0-7.4 1.2-9.9 3.5v-2.5h-10.1v41h10.3v-22.7c0-3.1.7-5.6 2.2-7.3 1.5-1.8 3.4-2.6 6.1-2.6 2.3 0 4.1.8 5.4 2.3 1.3 1.6 2 3.7 2 6.4v23.7h10.3v-23.6c0-5.7-1.4-10.2-4.3-13.4z"/><path d="m342.1 43.4c-3.1-2.7-7.4-4-12.8-4-3.4 0-6.6.8-9.5 2.2-2.7 1.4-5.3 3.6-7 6.6l.1.1 6.6 6.3c2.7-4.3 5.7-5.8 9.7-5.8 2.2 0 3.9.6 5.3 1.7s2 2.6 2 4.4v2c-2.6-.8-5.1-1.2-7.6-1.2-5.1 0-9.3 1.2-12.4 3.6s-4.7 5.9-4.7 10.2c0 3.8 1.3 7 4 9.3 2.7 2.2 6 3.4 9.9 3.4s7.6-1.6 10.9-4.3v3.4h10.1v-26.3c.1-5-1.5-8.9-4.6-11.6zm-18.3 22.3c1.2-.8 2.8-1.2 4.9-1.2 2.5 0 5.1.5 7.8 1.5v4c-2.2 2.1-5.2 3.1-8.9 3.1-1.8 0-3.2-.4-4.1-1.2s-1.4-1.7-1.4-3c0-1.4.5-2.4 1.7-3.2z"/><path d="m402.7 82.2c-16.5 0-30-13.4-30-30s13.4-30 30-30 30 13.4 30 30-13.5 30-30 30zm0-49.4c-10.7 0-19.4 8.7-19.4 19.4s8.7 19.4 19.4 19.4 19.4-8.7 19.4-19.4-8.7-19.4-19.4-19.4z"/></g></svg>