<svg viewBox="0 0 1266 559" xmlns="http://www.w3.org/2000/svg"><g fill="#fff"><path d="m839.7 198.19h-21.8l.1 162.5h88.3v-20.1h-66.5z"/><path d="m990.33 332.18a37.2 37.2 0 0 1 -27 11.4c-16.6 0-23.3-8.2-23.3-18.9 0-16.1 11.2-23.8 35-23.8a104.65 104.65 0 0 1 15.4 1.2v30.1zm-22.6-98.5a72.19 72.19 0 0 0 -46.4 16.7l7.7 13.4c8.9-5.2 19.8-10.4 35.5-10.4 17.9 0 25.8 9.2 25.8 24.6v7.9a99.42 99.42 0 0 0 -15.1-1.2c-38.2 0-57.6 13.4-57.6 41.4 0 25.1 15.4 37.7 38.7 37.7 15.7 0 30.8-7.2 36-18.9l4 15.9h15.4v-83.2c-.1-26.3-11.5-43.9-44-43.9z"/><path d="m1082.07 344.32c-8.2 0-15.4-1-20.8-3.5v-75.1c7.4-6.2 16.6-10.7 28.3-10.7 21.1 0 29.2 14.9 29.2 39 0 34.2-13.1 50.3-36.7 50.3m9.2-110.6a39.93 39.93 0 0 0 -30 13.3v-21.02l-.1-27.8h-21.3l.1 158.5c10.7 4.5 25.3 6.9 41.2 6.9 40.7 0 60.3-26 60.3-70.9-.1-35.5-18.2-59-50.2-59"/><path d="m602.34 215.82c19.3 0 31.8 6.4 39.9 12.9l9.4-16.3c-12.7-11.2-29.9-17.2-48.3-17.2-46.4 0-78.9 28.3-78.9 85.4 0 59.8 35.1 83.1 75.2 83.1a127.79 127.79 0 0 0 48.4-9.4l-.5-63.9v-20.1h-59.54v20.1h38l.5 48.5c-5 2.5-13.6 4.5-25.3 4.5-32.2 0-53.8-20.3-53.8-63-.1-43.5 22.2-64.6 54.9-64.6"/><path d="m755.87 198.17h-21.3l.1 27.3v94.3c0 26.3 11.4 43.9 43.9 43.9a70.14 70.14 0 0 0 13.1-1.2v-19.1a62.36 62.36 0 0 1 -9.9.7c-17.9 0-25.8-9.2-25.8-24.6v-65h35.7v-17.8h-35.67l-.1-38.5z"/><path d="m680.4 360.69h21.3v-124h-21.3z"/><path d="m680.4 219.59h21.3v-21.3h-21.3z"/><path d="m461.49 297.63-17.78-54.63a7.84 7.84 0 0 0 -.44-1.48l-35.66-109.8a14.21 14.21 0 0 0 -13.55-9.67 13.94 13.94 0 0 0 -13.38 9.76l-34 104.63h-107.31l-34.05-104.64a13.92 13.92 0 0 0 -13.32-9.75h-.08a14.22 14.22 0 0 0 -13.5 9.76l-35.69 109.94c0 .09-.08.18-.11.27l-18.1 55.61a20.26 20.26 0 0 0 7.36 22.71l156.38 113.66a8 8 0 0 0 9.46-.05l156.41-113.61a20.26 20.26 0 0 0 7.36-22.71zm-233.76-45.13 43.6 134.15-104.64-134.15zm87 134.18 41.8-128.61 1.81-5.57h61.09l-94.67 121.28zm79.47-244.57 30.64 94.33h-61.32zm-52.71 110.33-30.37 93.46-18.12 55.65-48.42-149.11zm-149.64-110.33 30.7 94.33h-61.28zm-50.56 165.29a4.3 4.3 0 0 1 -1.56-4.82l13.44-41.29 98.57 126.37zm303.43 0-110.46 80.21.38-.48 98.2-125.84 13.43 41.28a4.31 4.31 0 0 1 -1.55 4.83z"/></g></svg>