<svg width="123" height="27" viewBox="0 0 123 27" fill="none" xmlns="http://www.w3.org/2000/svg">
<path d="M18.1504 27C18.7565 27 19.276 26.7835 19.709 26.3506C20.1419 25.9176 20.3584 25.3981 20.3584 24.792V2.61914C20.3584 2.01302 20.1419 1.49349 19.709 1.06055C19.276 0.627604 18.7565 0.411133 18.1504 0.411133C17.5443 0.411133 17.0247 0.627604 16.5918 1.06055C16.1589 1.49349 15.9424 2.01302 15.9424 2.61914V11.5068H4.5127V2.61914C4.5127 2.01302 4.30241 1.49349 3.88184 1.06055C3.44889 0.627604 2.92936 0.411133 2.32324 0.411133C1.71712 0.411133 1.19759 0.627604 0.764648 1.06055C0.331706 1.49349 0.115234 2.01302 0.115234 2.61914V24.792C0.115234 25.3981 0.331706 25.9176 0.764648 26.3506C1.19759 26.7835 1.71712 27 2.32324 27C2.92936 27 3.44889 26.7835 3.88184 26.3506C4.30241 25.9176 4.5127 25.3981 4.5127 24.792V15.9043H15.9424V24.792C15.9424 25.3981 16.1589 25.9176 16.5918 26.3506C17.0247 26.7835 17.5443 27 18.1504 27Z" fill="#272727"/>
<path d="M31.1305 22.6025V15.8672H39.2204C39.8265 15.8672 40.346 15.6569 40.7789 15.2363C41.2119 14.8034 41.4284 14.2839 41.4284 13.6777C41.4284 13.0716 41.2119 12.5521 40.7789 12.1191C40.346 11.6986 39.8265 11.4883 39.2204 11.4883H31.1305V4.75293L42.3375 4.79004H42.3561C42.9622 4.79004 43.4756 4.57357 43.8961 4.14062C44.3291 3.72005 44.5455 3.20671 44.5455 2.60059C44.5455 1.99447 44.3353 1.47493 43.9147 1.04199C43.4817 0.609049 42.9622 0.392578 42.3561 0.392578L28.9411 0.355469H28.9225C28.3164 0.355469 27.803 0.57194 27.3825 1.00488C26.9495 1.42546 26.733 1.94499 26.733 2.56348V24.8105C26.733 25.4167 26.9495 25.93 27.3825 26.3506C27.803 26.7835 28.3164 27 28.9225 27H42.3561C42.9622 27 43.4756 26.7835 43.8961 26.3506C44.3291 25.93 44.5455 25.4167 44.5455 24.8105C44.5455 24.2044 44.3291 23.6849 43.8961 23.252C43.4756 22.819 42.9622 22.6025 42.3561 22.6025H31.1305Z" fill="#272727"/>
<path d="M66.9514 26.165C66.9886 26.2145 67.0319 26.264 67.0813 26.3135C67.0813 26.3258 67.0813 26.332 67.0813 26.332C67.0937 26.3444 67.0999 26.3506 67.0999 26.3506C67.1494 26.4001 67.205 26.4495 67.2669 26.499C67.2792 26.5114 67.304 26.5299 67.3411 26.5547C67.3906 26.5918 67.4339 26.6227 67.471 26.6475C67.4833 26.6598 67.5081 26.6784 67.5452 26.7031C67.5823 26.7155 67.6256 26.734 67.6751 26.7588C67.6998 26.7835 67.7246 26.7959 67.7493 26.7959C67.7864 26.8206 67.8359 26.8392 67.8977 26.8516C67.9348 26.8763 67.9596 26.8887 67.972 26.8887C68.0091 26.901 68.0585 26.9134 68.1204 26.9258C68.1822 26.9505 68.207 26.9567 68.1946 26.9443C68.2441 26.9567 68.3059 26.9691 68.3802 26.9814C68.4296 26.9938 68.442 26.9938 68.4173 26.9814C68.5039 26.9938 68.5843 27 68.6585 27C68.7574 27 68.8626 26.9938 68.9739 26.9814C69.011 26.9691 69.0296 26.9629 69.0296 26.9629C69.1409 26.9505 69.246 26.9258 69.345 26.8887C69.3203 26.901 69.3326 26.8949 69.3821 26.8701C69.4811 26.833 69.58 26.7897 69.679 26.7402C69.679 26.7402 69.6852 26.7402 69.6975 26.7402C69.7841 26.6908 69.8769 26.6289 69.9759 26.5547C69.9882 26.5423 69.9944 26.5361 69.9944 26.5361C70.0439 26.499 70.0501 26.4928 70.013 26.5176C70.0377 26.5052 70.0686 26.4805 70.1057 26.4434C70.1552 26.4062 70.18 26.3815 70.18 26.3691C70.1923 26.3691 70.2171 26.3444 70.2542 26.2949C70.2913 26.2578 70.316 26.2331 70.3284 26.2207C70.3284 26.2207 70.347 26.196 70.3841 26.1465C70.4212 26.097 70.4459 26.0599 70.4583 26.0352L70.5139 25.9795C70.5387 25.93 70.5572 25.8929 70.5696 25.8682C70.5696 25.8682 70.5882 25.8372 70.6253 25.7754C70.65 25.7135 70.6624 25.6826 70.6624 25.6826C70.6748 25.6579 70.6871 25.6208 70.6995 25.5713C70.7242 25.5218 70.7366 25.4909 70.7366 25.4785C70.749 25.4661 70.7613 25.429 70.7737 25.3672C70.7861 25.3053 70.7923 25.2744 70.7923 25.2744C70.8046 25.2497 70.8108 25.2126 70.8108 25.1631C70.8232 25.1136 70.8294 25.0765 70.8294 25.0518C70.8294 25.0394 70.8294 25.0085 70.8294 24.959C70.8417 24.9095 70.8479 24.8724 70.8479 24.8477V2.58203C70.8479 1.97591 70.6315 1.46257 70.1985 1.04199C69.7779 0.609049 69.2646 0.392578 68.6585 0.392578C68.0524 0.392578 67.5328 0.609049 67.0999 1.04199C66.6793 1.46257 66.469 1.97591 66.469 2.58203V18.4277L53.1282 1.24609C52.8437 0.875 52.4788 0.621419 52.0335 0.485352C51.5758 0.349284 51.1305 0.361654 50.6975 0.522461C50.2522 0.670898 49.8935 0.936849 49.6214 1.32031C49.3492 1.69141 49.2132 2.11198 49.2132 2.58203V24.8105C49.2132 25.4167 49.4296 25.93 49.8626 26.3506C50.2832 26.7835 50.7965 27 51.4026 27C52.0087 27 52.5221 26.7835 52.9427 26.3506C53.3756 25.93 53.5921 25.4167 53.5921 24.8105V8.9834L66.9329 26.1465C66.9329 26.1589 66.9329 26.165 66.9329 26.165C66.9329 26.165 66.9391 26.165 66.9514 26.165Z" fill="#272727"/>
<path d="M79.9872 0.392578C79.3811 0.392578 78.8678 0.609049 78.4472 1.04199C78.0142 1.46257 77.7978 1.97591 77.7978 2.58203V24.8105C77.7978 25.4167 78.0142 25.93 78.4472 26.3506C78.8678 26.7835 79.3811 27 79.9872 27H91.9921C92.5982 27 93.1178 26.7835 93.5507 26.3506C93.9713 25.93 94.1816 25.4167 94.1816 24.8105C94.1816 24.2044 93.9713 23.6911 93.5507 23.2705C93.1178 22.8376 92.5982 22.6211 91.9921 22.6211H82.1767V2.58203C82.1767 1.97591 81.9602 1.46257 81.5273 1.04199C81.1067 0.609049 80.5933 0.392578 79.9872 0.392578Z" fill="#272727"/>
<path d="M109.5 4.73438C111.961 4.73438 114.07 5.60645 115.827 7.35059C117.571 9.1071 118.443 11.2161 118.443 13.6777C118.443 16.1393 117.571 18.2422 115.827 19.9863C114.07 21.7428 111.961 22.6211 109.5 22.6211C107.038 22.6211 104.935 21.7428 103.191 19.9863C101.434 18.2422 100.556 16.1393 100.556 13.6777C100.556 11.2161 101.434 9.1071 103.191 7.35059C104.935 5.60645 107.038 4.73438 109.5 4.73438ZM109.5 27C113.173 27 116.315 25.695 118.925 23.085C121.523 20.4873 122.822 17.3516 122.822 13.6777C122.822 10.0039 121.523 6.86198 118.925 4.25195C116.315 1.6543 113.173 0.355469 109.5 0.355469C105.826 0.355469 102.69 1.6543 100.092 4.25195C97.4823 6.86198 96.1773 10.0039 96.1773 13.6777C96.1773 17.3516 97.4823 20.4873 100.092 23.085C102.69 25.695 105.826 27 109.5 27Z" fill="#272727"/>
</svg>
