<svg height="92" viewBox="0 0 365 92" width="365" xmlns="http://www.w3.org/2000/svg"><g fill="none" fill-rule="evenodd" transform="translate(0 .229)"><g fill="#000"><path d="m159.557 54.437c0 1.46.209 2.92.834 4.38.418 1.46 1.252 2.503 2.295 3.754 1.043 1.043 2.085 1.877 3.545 2.503s2.92 1.043 4.589 1.043 3.337-.417 4.589-1.043c1.46-.626 2.502-1.46 3.545-2.503s1.669-2.294 2.295-3.754c.417-1.46.834-2.712.834-4.38 0-1.46-.209-2.92-.834-4.38-.418-1.46-1.252-2.503-2.295-3.546s-2.085-1.877-3.545-2.503-2.92-1.043-4.589-1.043-3.337.417-4.589 1.043c-1.46.626-2.502 1.46-3.545 2.503s-1.669 2.294-2.295 3.546c-.625 1.46-.834 2.92-.834 4.38m-9.594 0c0-2.92.626-5.84 1.668-8.135 1.043-2.502 2.503-4.588 4.38-6.257 1.878-1.668 3.963-3.128 6.675-3.963 2.503-1.042 5.214-1.46 8.134-1.46s5.631.418 8.134 1.46c2.503 1.043 4.797 2.295 6.675 3.963 1.877 1.669 3.337 3.755 4.38 6.257 1.042 2.503 1.668 5.215 1.668 8.135s-.626 5.84-1.668 8.134c-1.043 2.503-2.503 4.589-4.38 6.257-1.878 1.669-3.963 3.129-6.675 3.963-2.503 1.043-5.214 1.46-8.134 1.46s-5.631-.417-8.134-1.46-4.797-2.294-6.675-3.963c-1.877-1.668-3.337-3.754-4.38-6.257-1.042-2.294-1.668-5.006-1.668-8.134"/><path d="m205.234 54.437c0 1.46.209 2.92.835 4.38.417 1.46 1.251 2.503 2.294 3.754 1.043 1.043 2.086 1.877 3.546 2.503s2.92 1.043 4.588 1.043c1.669 0 3.337-.417 4.589-1.043 1.251-.626 2.503-1.46 3.545-2.503 1.043-1.043 1.669-2.294 2.295-3.754.417-1.46.834-2.712.834-4.38 0-1.46-.209-2.92-.834-4.38-.417-1.46-1.252-2.503-2.295-3.546-1.042-1.043-2.085-1.877-3.545-2.503s-2.92-1.043-4.589-1.043c-1.668 0-3.337.417-4.588 1.043-1.46.626-2.503 1.46-3.546 2.503s-1.669 2.294-2.294 3.546c-.418 1.668-.835 2.92-.835 4.38m22.526 13.348c-1.46 2.295-3.337 3.963-5.631 5.006-2.295 1.043-4.798 1.669-7.509 1.669-2.92 0-5.631-.417-7.926-1.46-2.294-1.043-4.171-2.503-5.84-4.172-1.668-1.877-2.92-3.963-3.754-6.257-.834-2.503-1.251-5.006-1.251-7.926 0-2.711.417-5.423 1.251-7.925.834-2.503 2.086-4.589 3.754-6.258 1.669-1.877 3.546-3.128 5.84-4.171 2.295-1.043 4.797-1.46 7.509-1.46 1.877 0 3.337.209 4.797.626s2.503.834 3.546 1.46c1.043.625 1.877 1.251 2.711 1.877s1.252 1.251 1.877 1.877h.209v-21.274c0-1.043.834-2.086 2.086-2.086h5.422c1.252 0 2.086 1.043 2.086 2.086v52.143c0 1.251-1.043 2.085-2.086 2.085h-4.797c-1.251 0-2.085-1.043-2.085-2.085v-3.755z"/><path d="m252.789 54.437c0 1.46.208 2.92.834 4.38.417 1.46 1.251 2.503 2.294 3.754 1.043 1.043 2.086 1.877 3.546 2.503s2.92 1.043 4.588 1.043c1.669 0 3.338-.417 4.589-1.043s2.503-1.46 3.546-2.503 1.668-2.294 2.294-3.754c.417-1.46.834-2.712.834-4.38 0-1.46-.208-2.92-.834-4.38-.417-1.46-1.251-2.503-2.294-3.546s-2.086-1.877-3.546-2.503-2.92-1.043-4.589-1.043c-1.668 0-3.337.417-4.588 1.043-1.46.626-2.503 1.46-3.546 2.503s-1.668 2.294-2.294 3.546c-.626 1.46-.834 2.92-.834 4.38m-9.595 0c0-2.92.626-5.84 1.669-8.135 1.043-2.502 2.503-4.588 4.38-6.257 1.877-1.668 3.963-3.128 6.674-3.963 2.503-1.042 5.214-1.46 8.134-1.46s5.632.418 8.135 1.46c2.503 1.043 4.797 2.295 6.674 3.963 1.877 1.669 3.337 3.755 4.38 6.257 1.043 2.503 1.669 5.215 1.669 8.135s-.626 5.84-1.669 8.134c-1.043 2.503-2.503 4.589-4.38 6.257-1.877 1.669-3.963 3.129-6.674 3.963-2.503 1.043-5.215 1.46-8.135 1.46s-5.631-.417-8.134-1.46-4.797-2.294-6.674-3.963c-1.877-1.668-3.337-3.754-4.38-6.257-1.043-2.294-1.669-5.006-1.669-8.134"/><path d="m289.289 22.525c0-1.46.625-2.92 1.668-3.963 1.043-1.042 2.503-1.668 4.38-1.668 1.669 0 3.129.626 4.38 1.668 1.252 1.043 1.877 2.503 1.877 4.172s-.625 2.92-1.877 4.171c-1.251 1.043-2.711 1.669-4.38 1.669-1.668 0-3.128-.626-4.38-1.669-1.043-1.46-1.668-2.711-1.668-4.38"/><g transform="translate(305 20.771)"><path d="m23.709 25.323c-1.043 0-1.669-.626-1.669-1.043-.834-2.086-3.337-2.92-5.423-2.92-3.128 0-5.631 1.46-5.631 3.963s2.503 2.92 3.963 3.337c1.668.417 4.797 1.251 6.465 1.669 1.669.417 3.337 1.042 5.006 1.877 5.006 2.711 5.84 6.674 5.84 9.177 0 9.177-9.177 12.306-15.434 12.306-4.797 0-13.975-.835-16.06-10.012-.209-.834.625-2.294 2.085-2.294h5.215c1.043 0 1.668.834 1.877 1.251.626 1.877 2.92 3.337 6.466 3.337 3.962 0 6.257-1.46 6.257-3.545 0-1.252-.835-2.503-1.669-3.129-2.92-2.086-10.22-2.294-14.183-4.38-1.46-.834-5.214-2.711-5.214-8.968 0-8.552 7.926-12.306 14.809-12.306 10.22 0 13.974 6.466 14.391 8.76.209 1.251-.417 2.711-2.086 2.711h-5.005z"/><path d="m32.886 20.526v-3.963c0-1.043.834-2.086 2.085-2.086h5.006v-9.594c0-1.043.626-1.669 1.252-1.877.417-.209 3.128-1.46 5.422-2.295 1.669-.625 2.92.626 2.92 1.878v12.097h8.343c1.252 0 2.086 1.043 2.086 2.085v3.963c0 1.043-1.043 2.086-2.086 2.086h-8.343v16.686c0 1.877 0 3.337.626 4.588.626 1.043 1.669 1.46 3.546 1.46.626 0 1.043 0 1.46-.208 1.251-.417 2.086.208 2.503.834.625 1.251 1.251 2.503 1.877 3.546s.208 2.294-.834 2.92c-1.669.834-3.755 1.46-6.883 1.46-2.503 0-3.963-.209-5.632-.834-1.668-.626-3.128-1.669-3.963-2.92-.834-1.043-1.46-2.712-1.668-4.381-.417-1.668-.417-3.754-.417-6.048v-16.894h-5.006c-1.669-.418-2.294-1.46-2.294-2.503"/></g><path d="m120.137 41.297v-3.963c0-1.043.834-2.086 2.086-2.086h5.84v-9.594c0-1.043.626-1.669 1.251-1.877.417-.209 3.129-1.46 5.423-2.295 1.669-.625 2.92.626 2.92 1.878v12.097h8.343c1.251 0 2.086 1.043 2.086 2.085v3.963c0 1.043-1.043 2.086-2.086 2.086h-8.343v16.686c0 1.877 0 3.337.626 4.588.626 1.043 1.668 1.46 3.546 1.46.625 0 1.042 0 1.46-.208 1.251-.417 2.085.208 2.502.834.626 1.251 1.252 2.503 1.878 3.546.625 1.043.208 2.294-.835 2.92-1.668.834-3.754 1.46-6.883 1.46-2.502 0-3.962-.209-5.631-.834-1.669-.626-3.129-1.669-3.963-2.92-.834-1.043-1.46-2.712-1.668-4.381-.418-1.668-.418-3.754-.418-6.048v-16.894h-5.84c-1.668-.418-2.294-1.46-2.294-2.503"/><path d="m292.626 73.625h5.423c1.042 0 2.085-.834 2.085-2.085v-34.206c0-1.043-.834-2.086-2.085-2.086h-5.423c-1.043 0-2.086.834-2.086 2.086v34.206c.209 1.042 1.043 2.085 2.086 2.085"/><path d="m80.3 0h-68.829c-6.257 0-11.471 5.214-11.471 11.471v68.829c0 6.257 5.214 11.471 11.471 11.471h68.829c6.257 0 11.471-5.214 11.471-11.471v-68.829c0-6.257-5.005-11.471-11.471-11.471"/></g><path d="m19.606 42.965c1.668-.834 36.291-20.857 37.125-21.274.835-.417.835-1.877 0-2.294-.834-.417-2.502-1.46-3.128-1.877-.626-.418-1.877-.626-2.92 0-.417.208-30.034 17.311-31.077 17.937-1.252.625-2.712.625-3.755 0-.834-.626-15.642-9.177-15.642-9.177v7.717c3.754 2.294 13.348 7.717 15.642 8.968 1.252.835 2.503.835 3.755 0" fill="#fffffe"/><path d="m19.606 58.4c1.668-.835 36.291-20.858 37.125-21.275.835-.417.835-1.877 0-2.294-.834-.417-2.502-1.46-3.128-1.877s-1.877-.626-2.92 0c-.417.208-30.034 17.311-31.077 17.937-1.252.626-2.712.626-3.755 0-1.042-.626-15.851-9.177-15.851-9.177v7.717c3.754 2.294 13.349 7.717 15.643 8.969 1.46.834 2.711.834 3.963 0" fill="#fffffe"/><path d="m19.606 73.834c1.668-.834 36.291-20.857 37.125-21.274.835-.418.835-1.878 0-2.295-.834-.417-2.502-1.46-3.128-1.877s-1.877-.625-2.92 0c-.417.209-30.034 17.312-31.077 17.937-1.252.626-2.712.626-3.755 0-.834-.625-15.642-9.177-15.642-9.177v7.717c3.754 2.295 13.348 7.717 15.642 8.969 1.252.834 2.503.834 3.755 0" fill="#fffffe"/></g></svg>