<?xml version="1.0" encoding="UTF-8"?>
<svg width="800px" height="901px" viewBox="0 0 800 901" version="1.1" 
    xmlns="http://www.w3.org/2000/svg" 
    xmlns:xlink="http://www.w3.org/1999/xlink">
    <!-- Generator: Sketch 59.1 (86144) - https://sketch.com -->
    <title>Island</title>
    <desc>Created with Sketch.</desc>
    <g id="Illustrations" stroke="none" stroke-width="1" fill="none" fill-rule="evenodd">
        <g id="Desktop" transform="translate(-133.000000, -61.000000)">
            <g id="Island" transform="translate(133.000000, 61.000000)">
                <path d="M701.256441,721.142106 L752,616.396227 L752,616.396227 L49,621.792453 L80,705.091879 C89.6072519,722.514588 104.440585,741.782704 124.5,762.896227 C144.559415,784.009749 181.059415,808.308491 234,835.792453 L244,802.396227 L375.5,889.896227 L393.5,862.292453 L411.5,900.292453 L546,835.792453 L557.5,802.292453 L577,826.292453 L618.5,802.396227 L691.191866,734.765186 C695.361037,730.886275 698.773735,726.266957 701.256441,721.142106 Z" id="Path" fill="#FFFFFF"></path>
                <path d="M753.201184,615.240758 L701.931408,721.072864 C699.408224,726.281272 695.939883,730.975905 691.702738,734.918059 L691.702738,734.918059 L619.010871,802.5491 L618.87425,802.649951 L576.820707,826.864915 L557.770421,803.418409 L546.607419,835.936717 L411.144801,900.898345 L393.39604,863.428739 L375.71475,890.543756 L244.427896,803.185583 L234.458579,836.479342 L233.654432,836.061871 C180.646161,808.54277 144.085645,784.203741 123.956271,763.016583 C103.855966,741.860022 88.9848286,722.5428 79.3432326,705.057808 L79.3432326,705.057808 L79.297097,704.957239 L47.9237001,620.654466 L753.201184,615.240758 Z M750.798816,616.759242 L50.0762999,622.137987 L80.6835318,704.382014 C90.2572432,721.729729 105.043852,740.93256 125.043729,761.983417 C144.931698,782.916483 181.103085,807.03552 233.541526,834.312763 L233.541526,834.312763 L243.130709,802.289546 C235.490504,785.063101 228.041402,750.65152 220.757349,699.00096 C220.699506,698.590805 220.985112,698.211418 221.395267,698.153575 C221.805422,698.095733 222.184809,698.381339 222.242651,698.791494 C229.45875,749.96019 236.835621,784.157748 244.347733,801.331404 L375.28525,888.456244 L392.871426,861.487087 C412.92528,830.677698 427.581406,806.528399 436.837159,789.045311 C446.089574,771.568528 455.410553,750.429878 464.798578,725.630695 L464.798578,725.630695 L466.201422,726.161758 C456.7926,751.015879 447.446913,772.210562 438.162841,789.747142 C428.882107,807.277417 414.2049,831.461452 394.128574,862.305366 L394.3567,861.952758 L411.855199,898.894109 L545.392581,834.855736 L557.229579,800.374044 L577.179293,824.927538 L618.051694,801.392691 L690.680995,733.81986 C694.78219,730.004192 698.139246,725.460189 700.581473,720.418895 L700.581473,720.418895 L750.798816,616.759242 Z M545.675697,834.719967 L545.392581,834.855736 L545.290633,835.152713 L545.675697,834.719967 Z" id="Combined-Shape" fill="#3D3F4C" fill-rule="nonzero"></path>
                <path d="M400.5,680 C409.701868,680 422.632382,679.431216 439.291543,678.293648 L465,728.896227 L478.5,698.896227 L489,704.396227 L501.5,678.396227 C668.5,656.769138 752,637.040209 752,619.20944 C752,602.978629 720.823533,594.896284 670.5,583.339233 C633.936885,574.942331 587.651297,561.531148 534,557.286136 C519.721582,556.156395 504.027671,558.084548 489,557.286136 C460.476995,555.770724 431.653783,552 400.5,552 C359.620271,552 321.493542,554.832787 285,557.286136 C205.046192,562.661185 143.467348,577.463561 101.5,590.890855 C71.6587892,600.438438 48.5,607.219207 48.5,619.396227 C48.5,634.508441 98.1423064,648.731926 197.426919,662.066681 L221.5,699.5 L230.5,665.651917 C237.819452,666.44815 243.352501,667.06163 247.099148,667.492359 C293.441033,672.819997 345.572147,680 400.5,680 Z" id="Oval" fill="#3D3F4C"></path>
                <path d="M146.27744,588.797609 C217.219568,424.021527 265.793755,320.221067 292,277.396227 C319.333333,232.72956 338.833333,205.396227 350.5,195.396227 L350.5,595.229829 C350.500001,604.787996 344.328397,613.252605 335.228188,616.175748 C310.903048,623.9894 280.326985,627.896227 243.5,627.896227 C210.943677,627.896227 183.359791,624.842976 160.748342,618.736475 L160.748342,618.736474 C149.018308,615.568633 142.077279,603.491519 145.245119,591.761485 C145.518227,590.75021 145.863211,589.759731 146.27744,588.797609 Z" id="Path-364" fill="#FFFFFF"></path>
                <path d="M351.75,193.369335 L351.749552,194.294335 L351.809027,194.316624 C352.154993,194.473072 352.324656,194.859457 352.219071,195.213475 L352.183376,195.309027 L351.749552,196.266335 L351.75,594.833602 C351.75,604.717616 345.368002,613.470791 335.957558,616.493587 C311.550421,624.333578 280.899257,628.25 244,628.25 C211.382033,628.25 183.734013,625.18965 161.052801,619.064308 C148.922879,615.788473 141.745223,603.299639 145.021059,591.169717 C145.303477,590.123966 145.660222,589.099721 146.088573,588.104799 C217.045942,423.293317 265.628264,319.47547 291.860275,276.608526 C319.236812,231.871259 338.763309,204.500784 350.511906,194.430558 L351.75,193.369335 Z M262.935552,480.916335 L179.303268,621.615186 C198.071532,625.037743 219.63755,626.75 244,626.75 C254.596735,626.75 264.673644,626.426053 274.230628,625.77833 L262.935552,480.916335 Z M350.249552,483.641335 L276.029493,625.652143 C298.861686,623.995954 318.685247,620.466264 335.498818,615.065456 C344.288793,612.241966 350.25,604.065923 350.25,594.833602 L350.249552,483.641335 Z M322.719552,333.698335 L264.261552,478.615335 L275.544769,623.338501 L349.216711,482.379519 L322.719552,333.698335 Z M147.466308,588.697965 C147.0662,589.627288 146.732977,590.584 146.46918,591.5608 C143.409334,602.890947 150.113737,614.556341 161.443884,617.616187 C166.622326,619.014689 172.063484,620.252677 177.767319,621.330094 L205.774973,455.749065 C188.391789,494.469062 168.955338,538.785758 147.466308,588.697965 Z M288.638552,334.332335 L207.712193,453.286507 L179.910196,617.659713 L262.786552,478.231335 L288.638552,334.332335 Z M350.249552,294.703335 L323.778552,331.100335 L350.249552,479.630335 L350.249552,294.703335 Z M350.249552,199.583335 L290.721552,331.222335 L265.523352,471.479311 L322.250198,330.852324 C322.252974,330.815321 322.258411,330.777438 322.266715,330.738768 L322.266715,330.738768 L350.249552,200.421335 L350.249552,199.583335 Z M208.801849,449.017366 L289.249552,330.768335 L289.250893,283.912221 C271.365988,314.606683 244.547561,369.645323 208.801849,449.017366 Z M350.249552,207.563335 L324.476995,327.59022 L350.249552,292.151335 L350.249552,207.563335 Z M293.139725,277.391474 C292.322026,278.727714 291.482489,280.123461 290.621116,281.578713 C290.702517,281.699567 290.75,281.844238 290.75,282 L290.75,282 L290.75,327.521232 L349.685011,197.195009 C337.929814,208.281515 319.06078,235.032677 293.139725,277.391474 Z" id="Combined-Shape" fill="#3D3F4C" fill-rule="nonzero"></path>
                <path d="M653.042039,3.63134433 L603,40.5 L569.874613,40.7322116 L581,58 L517,99.5 L496,86.5 L496,107 L446.5,134 L427.5,126.5 L421,147.5 L350.425,195.417637 L351,195.5 L244,247 L226,213.5 L212.5,236 L170,247 L170,221.5 L148.5,247 L116.5,255 C117.5,253 133.166667,239.166667 163.5,213.5 C193.833333,187.833333 256.333333,181.833333 351,195.5 L350.019,195.359637 L350.289,194.753637 L230.533333,153.35493 L230.533333,129.929577 L195,139.039437 L159.466667,122.55493 L165.966667,97.828169 L117.866667,109.540845 L84.5,97.828169 L92.3,73.9690141 L52.4333333,90.8873239 L0,83.5126761 C20.2222222,55.170892 69.7666667,41 148.633333,41 C227.5,41 294.955556,92.3333333 351,195 L350.547,194.175637 L351.256528,192.588298 C399.274534,85.7946481 459.505258,26.0878533 531.948699,13.4679134 C605.123893,0.720499326 645.488339,-2.55835703 653.042039,3.63134433 Z M478.5,168.5 C517.466593,170.015954 550.799927,181.826173 578.5,203.930656 L543,209 L520,204 L520,221.5 L478.428687,233 L464.816045,203.930656 L458.561588,233 L417.355754,229.320336 L417.355754,209.082186 L403.007293,220.85711 L351.5,195.099463 C397.200073,175.850534 439.533407,166.984046 478.5,168.5 Z" id="Combined-Shape" fill="#3D3F4C"></path>
                <path d="M628.547802,430.479945 L648.023725,460.290823 L689.639464,437.832413 L696.86922,420.030105 C697.166924,419.297048 697.420866,418.546971 697.629708,417.78383 L704.046733,394.334929 C704.639956,392.167037 703.363475,389.928687 701.195593,389.335425 C699.027712,388.742162 696.789362,390.018643 696.1961,392.186525 C696.103773,392.523902 696.055327,392.871775 696.05196,393.221541 C696.05196,393.221541 696.05196,393.221541 696.05196,393.221541 C696.024024,396.123049 690.820078,404.131735 680.440122,417.247599 L693.561473,393.003651 L686.633525,375.553287 L648.919667,404.155297 L628.547802,430.479945 Z" id="Path-378" fill="#FFFFFF" transform="translate(666.620864, 417.922055) rotate(-5.000000) translate(-666.620864, -417.922055) "></path>
                <path d="M694.100647,393.198308 L686.679336,374.505243 L648.179289,403.703496 L648.039358,403.842069 L627.340734,430.588957 L647.485852,461.424141 L689.945733,438.510181 L697.276929,420.458088 C697.585797,419.697541 697.849262,418.919337 698.065935,418.127577 L704.48296,394.678677 C705.185513,392.111247 703.673781,389.460399 701.106386,388.757805 C698.538981,388.055209 695.888121,389.566936 695.185525,392.134341 C695.076183,392.533894 695.018809,392.945877 695.014821,393.360102 C694.994577,395.462628 691.706536,400.948111 685.226087,409.595582 L694.100647,393.198308 Z M649.16484,404.838642 L686.013366,376.892894 L692.447951,393.100559 L679.493357,417.036396 L680.741058,417.858814 C691.276531,404.546441 696.484353,396.53179 696.514751,393.374543 C696.517498,393.089237 696.557016,392.805474 696.632327,392.530273 C697.116256,390.761915 698.942096,389.720679 700.710454,390.204608 C702.478809,390.688536 703.520055,392.514378 703.036154,394.282758 L696.619133,417.731645 C696.418123,418.466169 696.173703,419.188118 695.887163,419.893685 L688.758849,437.446209 L647.98725,459.449069 L629.180523,430.662497 L649.16484,404.838642 Z" id="Path-378" fill="#3D3F4C" fill-rule="nonzero" transform="translate(665.997907, 417.964692) rotate(-5.000000) translate(-665.997907, -417.964692) "></path>
                <path d="M344.709569,400.17269 L346,403.591582 L346,403.591582 L369,402.540998 L381,422.540998 L346,422.532112 C346,429.445492 351.604403,435.049895 358.517784,435.049895 C358.835456,435.049895 359.153013,435.037802 359.469765,435.013643 L394.014066,432.378909 C400.985674,431.847176 407.375139,428.290264 411.5,422.644772 L411.5,422.644772 L411.5,422.644772 L408,392.540998 L407.213978,392.082486 C403.770331,390.073691 399.971534,388.747998 396.02576,388.178053 L357,382.540998 L357,382.540998 C349.803591,382.486165 343.925298,388.275555 343.870464,395.471964 C343.858233,397.077182 344.14271,398.670843 344.709569,400.17269 Z" id="Path-375" fill="#FFFFFF"></path>
                <path d="M379.675155,421.64589 L345.25,421.637149 L345.25,422.38734 C345.25,429.714934 351.190189,435.655123 358.517784,435.655123 C358.854489,435.655123 359.191072,435.642306 359.526803,435.6167 L394.071103,432.981965 C401.261414,432.433551 407.851319,428.765058 412.105579,422.942464 L412.278913,422.70523 L408.701692,391.937269 L407.591882,391.28988 C404.06492,389.232485 400.174217,387.874719 396.132981,387.290985 L357.107221,381.65393 L357.005715,381.646248 C349.395104,381.588259 343.178476,387.710868 343.120486,395.321478 C343.107551,397.019087 343.408402,398.704473 344.007887,400.292762 L345.490515,404.220864 L368.587141,403.165867 L379.675155,421.64589 Z M395.91854,388.775577 C399.768851,389.331733 403.475741,390.625353 406.836075,392.585548 L407.298308,392.855184 L410.720775,422.292086 C406.720921,427.624368 400.612869,430.97866 393.957028,431.486309 L359.412727,434.121044 C359.114953,434.143755 358.816422,434.155123 358.517784,434.155123 C352.27061,434.155123 347.160413,429.287149 346.773527,423.137536 L382.324845,423.146563 L369.412859,401.626586 L346.509485,402.672756 L345.411251,399.763074 C344.877019,398.347669 344.608916,396.845734 344.620443,395.332907 C344.671992,388.567467 350.18472,383.121513 356.944008,383.14576 L395.91854,388.775577 Z" id="Path-375" fill="#3D3F4C" fill-rule="nonzero"></path>
                <path d="M657.985025,620.675254 L686.739565,695.864252 C687.843696,698.751397 687.388939,702.00316 685.535126,704.476639 C682.554123,708.454089 676.913182,709.26187 672.935731,706.280867 L672.935731,706.280867 L603.411694,654.174284 C599.378219,651.151292 596.894231,646.494242 596.630428,641.460574 L596.630428,641.460574 L596,629.431299 L657.985025,620.675254 Z M717.718014,568.396227 L796.25949,615.169071 C798.083488,616.255294 799.197702,618.224523 799.189477,620.347441 C799.176639,623.661124 796.47996,626.336988 793.166276,626.324149 L793.166276,626.324149 L695.646242,625.946316 C688.104565,625.917096 681.60726,620.625402 680.052099,613.245753 L680.052099,613.245753 L677.948853,603.265293 L717.718014,568.396227 Z" id="Combined-Shape" fill="#FFFFFF"></path>
                <path d="M676.906482,603.094392 L717.415411,567.576708 L796.425222,614.628454 C798.477219,615.850455 799.730711,618.065837 799.721508,620.45412 C799.707014,624.182014 796.67325,627.19236 792.945356,627.177969 L695.425322,626.800084 C687.530129,626.769494 680.728262,621.229752 679.100204,613.504182 L676.906482,603.094392 Z M680.567966,613.194871 C682.050229,620.228599 688.242973,625.272245 695.431134,625.300095 L792.951167,625.678008 C795.850641,625.689162 798.210235,623.347781 798.221547,620.448308 C798.228666,618.590755 797.253728,616.86768 795.65773,615.917235 L717.584589,569.423292 L678.555196,603.643741 L680.567966,613.194871 Z M594.997071,628.888504 L658.254006,619.952788 L687.222071,695.700125 C688.418214,698.827866 687.92556,702.350609 685.917263,705.03021 C682.687843,709.339116 676.576823,710.214211 672.267918,706.984791 L602.743881,654.878209 C598.532458,651.721849 595.938883,646.859341 595.663441,641.603599 L594.997071,628.888504 Z M597.161385,641.525095 C597.41355,646.33669 599.78795,650.788282 603.643478,653.677907 L673.167515,705.784489 C676.813512,708.517075 681.984375,707.77661 684.716961,704.130613 C686.416289,701.863258 686.83315,698.882475 685.82103,696.235925 L657.280015,621.605266 L596.5669,630.181641 L597.161385,641.525095 Z" id="Combined-Shape" fill="#3D3F4C" fill-rule="nonzero"></path>
                <path d="M683,516.896227 C706.156083,516.896227 724.927798,498.124512 724.927798,474.968429 C724.927798,466.401262 722.303368,458.039701 717.407728,451.009121 L690.5,406.396227 L687.948394,411.324832 L713.304516,453.866331 C717.616338,460.058496 719.927798,467.422919 719.927798,474.968429 C719.927798,495.363088 703.39466,511.896227 683,511.896227 L683,516.896227 Z" id="Path-383" fill="#26B7A0" fill-rule="nonzero"></path>
                <path d="M682.528984,517.75 C706.099281,517.75 725.206781,498.642499 725.206781,475.072202 C725.206781,466.351787 722.535406,457.840655 717.552194,450.684312 L690.671213,406.112647 L689.979077,404.96509 L686.619549,411.454253 L712.189256,454.354095 C716.442267,460.46509 718.706781,467.679941 718.706781,475.072202 C718.706781,495.052648 702.50943,511.25 682.528984,511.25 L681.778984,511.25 L681.778984,517.75 L682.528984,517.75 Z M683.278984,512.742684 C703.741679,512.34316 720.206781,495.630496 720.206781,475.072202 C720.206781,467.373444 717.848376,459.85945 713.448982,453.541523 L688.335198,411.402974 L690.07889,408.03491 L716.294483,451.500247 C721.129297,458.446294 723.706781,466.658284 723.706781,475.072202 C723.706781,497.563543 705.674804,515.84329 683.278984,516.243307 L683.278984,512.742684 Z" id="Path-383" fill="#3D3F4C" fill-rule="nonzero"></path>
                <path d="M363,410.960893 C366.85067,410.216151 369.517337,410.716151 371,412.460893 C378.28589,421.034652 379.68568,433.243978 380.512941,441.342722 C385.101836,486.267174 383.726101,534.504679 374.628292,561.798107 C368.20192,581.077223 378.621127,601.915638 397.900243,608.34201 C414.365616,613.830467 432.427356,607.067203 441.238287,592.113971 C457.251287,564.937992 474.975274,540.807626 487,512.960893 L482.409688,510.978713 C470.4683,538.632455 452.838861,562.577275 436.930495,589.575678 C429.316825,602.497012 413.70938,608.341259 399.481382,603.598594 C382.821983,598.04546 373.818575,580.038645 379.371708,563.379246 C388.749664,535.245378 390.142448,486.410061 385.487059,440.834631 C384.482596,431.001118 381,414.960893 372.5,406.960893 C371.166381,405.705722 367.999714,405.205722 363,405.460893 L363,410.960893 Z" id="Path-382" fill="#26B7A0" fill-rule="nonzero"></path>
                <path d="M363.142415,412.132581 C366.754981,411.43389 369.155597,411.884005 370.428486,413.381893 C376.243739,420.225063 378.378588,428.263694 379.766824,441.854269 C384.592245,489.094274 382.572171,536.030095 373.916779,561.99627 C367.359421,581.668343 377.990999,602.931498 397.663073,609.488856 C414.464051,615.089182 432.893936,608.188066 441.884456,592.930048 C445.15409,587.381086 448.561946,581.830724 453.147833,574.527641 C452.839907,575.018016 461.495997,561.287298 463.876236,557.460732 C474.856286,539.808771 481.875756,527.154754 487.688547,513.693554 L487.985874,513.005007 L482.018468,510.428173 L481.721141,511.11672 C475.995975,524.375001 469.067517,536.856341 458.214517,554.28673 C455.855371,558.075621 447.27373,571.674109 447.567367,571.206963 C442.971863,578.517954 439.559863,584.07129 436.284327,589.630267 C428.850246,602.246817 413.610945,607.953212 399.718553,603.322415 C383.452111,597.900267 374.661073,580.318192 380.083221,564.05175 C389.071571,537.086699 391.159692,489.423456 386.233176,441.193751 C384.806098,427.222907 380.36749,413.770987 373.014024,406.850077 C371.480357,405.406625 368.157799,404.882011 362.961772,405.147202 L362.25,405.183528 L362.25,412.305179 L363.142415,412.132581 Z M363.75,406.61369 C368.139997,406.449461 370.909469,406.929193 371.985976,407.942377 C379.007149,414.550539 383.347506,427.704694 384.740941,441.346178 C389.647768,489.383129 387.568086,536.853738 378.660196,563.577408 C372.976077,580.629765 382.191855,599.061321 399.244211,604.74544 C413.807815,609.599974 429.783405,603.617874 437.576664,590.391755 C440.843633,584.847318 444.248798,579.305107 448.83732,572.005223 C448.54149,572.475859 457.12588,558.873014 459.487859,555.079573 C470.189611,537.892094 477.096677,525.485278 482.799749,512.39942 L486.012976,513.78695 C480.293258,526.911505 473.358795,539.376278 462.602541,556.668455 C460.225121,560.490489 451.571775,574.216856 451.877516,573.72996 C447.284763,581.043978 443.870181,586.605295 440.592118,592.16856 C431.960777,606.817008 414.26718,613.44242 398.137414,608.065831 C379.251256,601.770445 369.044418,581.35677 375.339804,562.470611 C384.075833,536.262525 386.104173,489.13464 381.259059,441.701842 C379.841034,427.81963 377.647703,419.560789 371.571514,412.41056 C370.004855,410.566975 367.375414,409.958774 363.75,410.505818 L363.75,406.61369 Z" id="Path-382" fill="#3D3F4C" fill-rule="nonzero"></path>
                <path d="M313.545724,387.270334 L314.233744,433.929222 C314.266316,436.138121 316.083387,437.902382 318.292286,437.86981 C318.428976,437.867795 318.565473,437.858773 318.701239,437.842781 L343.134966,434.964702 C355.877745,433.463714 365.48048,422.663472 365.48048,409.832596 C365.48048,397.105008 355.744244,386.492502 343.063773,385.398364 L317.889152,383.226165 C315.688191,383.036255 313.750007,384.666533 313.560097,386.867494 C313.548538,387.001447 313.543741,387.135898 313.545724,387.270334 Z" id="Path-376" fill="#26B7A0" transform="translate(339.480480, 410.603538) rotate(1.000000) translate(-339.480480, -410.603538) "></path>
                <path d="M313.514945,434.044053 C313.553624,436.667121 315.711396,438.762181 318.334464,438.723502 C318.496783,438.721109 318.658873,438.710396 318.820096,438.691405 L343.253822,435.813326 C356.374265,434.267852 366.2616,423.147519 366.2616,409.936369 C366.2616,396.819559 356.22762,385.882511 343.159368,384.754914 L317.984747,382.582715 C315.371106,382.357196 313.069512,384.293152 312.843993,386.906793 C312.830268,387.065862 312.824571,387.225522 312.826925,387.385165 L313.514945,434.044053 Z M314.33844,387.035742 C314.492742,385.247461 316.067517,383.92286 317.855798,384.077162 L343.030419,386.249361 C355.323108,387.310039 364.7616,397.598004 364.7616,409.936369 C364.7616,422.386971 355.443465,432.867122 343.078349,434.323625 L318.644622,437.201704 C318.534312,437.214698 318.423408,437.222028 318.312347,437.223665 C316.517617,437.25013 315.041247,435.816667 315.014782,434.021937 L314.326762,387.363049 C314.325152,387.25382 314.329049,387.144579 314.33844,387.035742 Z" id="Path-376" fill="#3D3F4C" fill-rule="nonzero" transform="translate(339.544004, 410.644440) rotate(1.000000) translate(-339.544004, -410.644440) "></path>
                <path d="M313.25,419.27401 L290.75,419.27401 L290.75,425.77401 L313.25,425.77401 L313.25,419.27401 Z M313.25,398.27401 L290.75,398.27401 L290.75,404.77401 L313.25,404.77401 L313.25,398.27401 Z" id="Combined-Shape" stroke="#3D3F4C" stroke-width="1.5" fill="#3D3F4C"></path>
                <path d="M563.990402,402.177377 L516.164879,400.321557 L516.164879,400.321557 C503.058241,399.482732 490.239218,404.411619 481.070753,413.815173 L476.015547,419 L441.515547,455.5 C434.984826,422.248103 429.984826,413.477663 425.515547,405.396227 C422.536027,400.008603 414.536027,394.675269 401.515547,389.396227 L400.015547,459.5 L399.022964,486.750894 C398.339462,505.516131 412.997605,521.28245 431.762843,521.965952 C443.752283,522.402654 455.084384,516.488247 461.582134,506.402781 L476.015547,484 L471.015547,526 L528.548328,519.979163 C541.994932,518.845112 563.269794,508.126925 563.97289,494.650913 L624.015547,508.896227 L656.005697,469.456315 L656.815498,468.457931 C658.902777,465.884573 658.654966,462.137595 656.246964,459.861539 L656.246964,459.861539 L656.246964,459.861539 L629.269868,434.36264 L629.195554,434.292399 C626.29173,431.547688 621.747504,431.556268 618.854064,434.311924 L618.854064,434.311924 L618.854064,434.311924 L592.515547,459.396227 L585.746583,421.151585 C583.860737,410.496552 574.802901,402.596945 563.990402,402.177377 Z" id="Path" fill="#FFFFFF"></path>
                <path d="M426.65632,404.533262 C423.571008,398.954341 415.449154,393.539772 402.2818,388.201181 C401.795031,388.003824 401.261408,388.355047 401.250172,388.880183 L399.750172,458.983956 L398.757915,486.223594 C398.059336,505.402771 413.04082,521.516876 432.219997,522.215455 C444.47391,522.66179 456.055983,516.616918 462.697066,506.308979 L475.371284,486.636727 L470.755259,525.41134 C470.69839,525.889037 471.099604,526.295997 471.578062,526.245927 L529.110843,520.22509 C545.027234,518.882892 563.645368,507.255312 565.128689,495.081011 L624.326866,509.12597 C624.60725,509.192491 624.900953,509.092486 625.082481,508.868684 L657.882432,468.430388 C660.216772,465.552435 659.939629,461.361948 657.246604,458.816486 L630.195195,433.247346 C627.001471,430.228621 622.003578,430.238057 618.821276,433.268821 L593.494919,457.389161 L586.969559,420.520873 C585.022217,409.518393 575.669017,401.361191 564.503937,400.927942 L516.678413,399.072121 C503.372153,398.220283 490.339479,403.231318 481.018206,412.791598 L475.963,417.976425 L442.454071,453.427773 C437.212211,427.018851 433.675112,417.224774 426.65632,404.533262 Z M623.917519,507.92377 L624.673134,507.666484 L624.214471,507.557664 L623.917519,507.92377 Z M564.630478,493.42117 C564.174902,493.313083 563.732758,493.644249 563.708362,494.111835 C563.105436,505.667924 544.634603,517.410684 528.969752,518.731816 L472.35573,524.656354 L477.244741,483.58866 C477.338769,482.798825 476.300314,482.425149 475.869521,483.093802 L461.436109,505.496584 C455.081691,515.359576 443.999563,521.143518 432.274596,520.716449 C413.923298,520.048024 399.588496,504.629492 400.256921,486.278194 L401.249503,459.0273 L402.72646,390.004357 C415.003923,395.087793 422.545752,400.199925 425.34368,405.259192 C432.410308,418.037204 435.894688,427.805782 441.26406,455.14454 C441.381583,455.742924 442.126161,455.958363 442.545053,455.515187 L477.045053,419.015187 L482.092206,413.838748 C491.107863,404.59192 503.713237,399.745182 516.60143,400.570026 L564.445775,402.426813 C574.905692,402.8327 583.668163,410.47471 585.492515,420.782297 L592.261478,459.026938 C592.365749,459.616068 593.084,459.851941 593.517241,459.43933 L619.855759,434.355028 C622.460336,431.874478 626.550896,431.866755 629.164821,434.337451 L656.21623,459.906592 C658.33921,461.913243 658.557689,465.21671 656.71747,467.485474 L624.214471,507.557664 L564.630478,493.42117 Z" id="Path" fill="#3D3F4C" fill-rule="nonzero"></path>
                <path d="M528.5,605.792453 L553.689304,605.792453 C563.493318,605.792453 572.896543,601.901374 579.833891,594.973755 L643,531.896227 L643,531.896227 L677,609.896227 L748.5,586.396227 L693.989089,491.002133 C681.917543,469.876927 655.482893,461.805844 633.670113,472.585415 L586.5,495.896227 L586.5,495.896227 L515.031366,575.63362 C508.364219,583.072141 508.989541,594.507044 516.428062,601.174192 C519.745868,604.147942 524.044551,605.792453 528.5,605.792453 Z" id="Path-371-Copy" fill="#FFFFFF"></path>
                <path d="M677.085375,610.925746 L750.107026,586.925623 L695.140271,490.733802 C682.871907,469.264163 656.006257,461.061486 633.837833,472.016812 L586.538046,495.391707 L514.972869,575.236812 C508.029259,582.983783 508.680511,594.892851 516.427481,601.836462 C519.882865,604.933523 524.359799,606.646227 529,606.646227 L554.189304,606.646227 C564.192048,606.646227 573.785879,602.676274 580.863849,595.608231 L643.251868,533.307701 L677.085375,610.925746 Z M634.502392,473.361565 C655.959529,462.757748 681.963179,470.697237 693.837907,491.47801 L747.892974,586.074377 L677.914625,609.074254 L643.748132,530.692299 L579.803933,594.546827 C573.007207,601.334021 563.794588,605.146227 554.189304,605.146227 L529,605.146227 C524.729302,605.146227 520.608871,603.569907 517.428643,600.719468 C510.298571,594.328784 509.699179,583.368046 516.089863,576.237974 L587.461954,496.608293 L634.502392,473.361565 Z" id="Path-371-Copy" fill="#3D3F4C" fill-rule="nonzero"></path>
                <path d="M471.5,525.292453 L461.713847,567.751195 C457.444896,586.272701 468.998875,604.748017 487.52038,609.016968 C490.055407,609.601256 492.648509,609.896227 495.25,609.896227 L525.10061,609.896227 C533.573432,609.896227 541.590566,606.05963 546.905791,599.461365 L570,570.792453 L570,570.792453 L586.5,633.896227 L666.5,624.292453 L646.604844,510.958881 C642.21227,485.936405 618.36666,469.212564 593.344184,473.605138 C589.758398,474.234605 586.260017,475.287531 582.92248,476.741812 L471.5,525.292453 L471.5,525.292453 Z" id="Path-371" fill="#FFFFFF"></path>
                <path d="M593.214508,472.970207 C618.644959,468.506015 642.879356,485.502527 647.343548,510.932978 L647.343548,510.932978 L667.37562,625.046496 L585.939881,634.822626 L569.650753,572.525328 L547.489858,600.035633 C542.032261,606.810638 533.800383,610.75 525.10061,610.75 L525.10061,610.75 L495.25,610.75 C492.591816,610.75 489.942204,610.448602 487.351932,609.85158 C468.426795,605.489597 456.621026,586.611657 460.983008,567.68652 L460.983008,567.68652 L470.854023,524.859594 L582.622885,476.158022 C586.014838,474.68003 589.570258,473.609937 593.214508,472.970207 Z M645.866139,511.19233 C641.545183,486.577829 618.088361,470.12666 593.47386,474.447616 C589.946538,475.06682 586.505196,476.102578 583.222075,477.533148 L583.222075,477.533148 L472.145977,525.932859 L462.444686,568.023417 C458.268766,586.141292 469.570954,604.213983 487.688829,608.389902 C490.168611,608.961458 492.705203,609.25 495.25,609.25 L495.25,609.25 L525.10061,609.25 C533.346482,609.25 541.148871,605.51617 546.321723,599.094644 L546.321723,599.094644 L569.299803,570.569338 L563.769937,547.068006 C563.682972,546.698404 563.885754,546.328326 564.230723,546.196138 L564.32822,546.166164 C564.731423,546.071293 565.135192,546.321245 565.230063,546.724447 L565.230063,546.724447 L571.230063,572.224447 C571.260355,572.353189 571.255492,572.481989 571.22171,572.600772 L587.060119,633.177374 L665.62438,623.745957 Z" id="Combined-Shape" fill="#3D3F4C" fill-rule="nonzero"></path>
                <path d="M661.691355,347.670102 L643.483022,423.670102 C642.196255,429.040956 645.507061,434.438025 650.877915,435.724792 C651.64106,435.907628 652.423073,436 653.207813,436 L675.601747,436 C680.245518,436 684.278242,432.803164 685.33791,428.281913 L703.15041,352.281913 C704.410676,346.904779 701.073295,341.524103 695.69616,340.263837 C694.948182,340.08853 694.182494,340 693.414247,340 L671.416147,340 C666.7908,340 662.769014,343.172049 661.691355,347.670102 Z" id="Path-379" fill="#3D3F4C"></path>
                <path d="M530.029781,401.792453 L535.253919,385.896227 L522.611791,385.896227 C499.630233,385.896227 481,367.265993 481,344.284436 C481,340.866359 481.421146,337.461304 482.253919,334.146227 L488.413774,309.625262 C492.434771,293.618604 506.824975,282.396227 523.32896,282.396227 L532.253919,282.396227 C551.535836,282.396227 567.166919,298.027309 567.166919,317.309227 C567.166919,317.984562 567.147324,318.659755 567.108159,319.333954 L562.029781,403.792453" id="Path" fill="#FFFFFF"></path>
                <path d="M529.287491,401.162067 L530.712509,401.630386 L536.260081,384.75 L522.58201,384.75 C500.014666,384.75 481.720219,366.455553 481.720219,343.888209 C481.720219,340.531739 482.133774,337.188056 482.951538,333.932728 L489.111393,309.411764 C493.048619,293.738578 507.139027,282.75 523.299179,282.75 L532.224138,282.75 C551.091842,282.75 566.387138,298.045296 566.387138,316.913 C566.387138,317.573828 566.367964,318.234517 566.32964,318.894232 L561.251352,403.351211 L562.748648,403.441242 L567.827026,318.982743 C567.867122,318.292541 567.887138,317.602843 567.887138,316.913 C567.887138,297.216869 551.920269,281.25 532.224138,281.25 L523.299179,281.25 C506.451361,281.25 491.761361,292.706177 487.656594,309.046307 L481.496738,333.567272 C480.648955,336.942099 480.220219,340.408526 480.220219,343.888209 C480.220219,367.28398 499.186239,386.25 522.58201,386.25 L534.188194,386.25 L529.287491,401.162067 Z" id="Path" fill="#3D3F4C" fill-rule="nonzero"></path>
                <path d="M16,698.896227 L42,743.396227 C24.6666667,777.396227 16,794.396227 16,794.396227 C16,794.396227 32.3333333,780.72956 65,753.396227 L75.2832637,762.625128 L65,787.896227 L99.0940308,780.989687 C115.640855,789.92738 126.942845,794.396227 133,794.396227 C140.994588,794.396227 150.705078,790.092407 162.131469,781.484768 C168.871852,776.407157 179.975674,765.684891 195.442936,749.31797 L195.442939,749.317973 C198.632064,745.943351 198.730575,740.696538 195.670374,737.204582 C168.907383,706.665678 148.017259,691.396227 133,691.396227 C117,691.396227 94.3333333,704.22956 65,729.896227 L16,698.896227 Z" id="Path-393" stroke="#3D3F4C" stroke-width="1.5" fill="#26B7A0" stroke-linejoin="round"></path>
                <path d="M41.1456761,743.420715 L15.3318204,794.055586 C14.9609549,794.783053 15.8550518,795.495426 16.481292,794.971429 L64.9827955,754.388539 L74.389774,762.831002 L64.305312,787.613546 C64.0797508,788.167862 64.5623674,788.750113 65.1489054,788.631296 L98.9768008,781.778668 C115.504206,790.690155 126.803592,795.146227 133,795.146227 C141.187819,795.146227 151.038359,790.780335 162.582738,782.083815 C169.366767,776.973324 180.493001,766.229416 195.988036,749.833107 C199.442924,746.17727 199.549646,740.493223 196.234427,736.71027 C169.335005,706.015686 148.308059,690.646227 133,690.646227 C116.841821,690.646227 94.1848156,703.430379 64.9279657,728.963163 L16.4009813,698.262418 C15.7370674,697.84239 14.9561031,698.596254 15.3524299,699.274582 L41.1456761,743.420715 Z M64.5990187,730.530036 C64.8797522,730.707643 65.243874,730.679413 65.4938785,730.460659 C94.6995541,704.905693 117.235754,692.146227 133,692.146227 C147.726458,692.146227 168.479762,707.315671 195.106321,737.698894 C197.911506,740.899854 197.821203,745.709432 194.897836,748.802833 C179.458346,765.140366 168.376936,775.84099 161.680201,780.885722 C150.371796,789.40448 140.801357,793.646227 133,793.646227 C127.111947,793.646227 115.886483,789.207639 99.4504668,780.329798 C99.2960094,780.246369 99.1171799,780.219764 98.9451253,780.254618 L66.2218187,786.883485 L75.9779518,762.907809 C76.097216,762.614717 76.0197014,762.278304 75.784206,762.066955 L65.5009423,752.838054 C65.2233247,752.588901 64.8047956,752.581645 64.518708,752.821024 L18.3374894,791.462452 L42.6681796,743.736867 C42.7841809,743.509326 42.7764148,743.238394 42.6475701,743.017871 L18.2005932,701.17593 L64.5990187,730.530036 Z" id="Path-393" fill="#3D3F4C" fill-rule="nonzero"></path>
                <path d="M308.544974,775.60011 L295,794.396227 C304.029982,809.062893 308.544974,816.396227 308.544974,816.396227 C308.544974,816.396227 315.495924,810.558039 329.397826,798.881664 C378.716478,810.558039 406.756709,816.396227 413.518519,816.396227 C419.155284,816.396227 429.701895,811.398157 445.158352,801.402016 L445.158352,801.402017 C448.868365,799.002644 449.930848,794.050008 447.531475,790.339996 C446.944723,789.432734 446.18027,788.65373 445.284232,788.049976 C429.796287,777.614143 419.207715,772.396227 413.518519,772.396227 C406.709424,772.396227 378.669193,777.878427 329.397826,788.842829 L308.544974,775.60011 Z" id="Path-393-Copy" fill="#26B7A0"></path>
                <path d="M413.518519,817.146227 C419.354645,817.146227 429.983694,812.109089 445.565644,802.031789 C449.623471,799.407475 450.785562,793.99053 448.161247,789.932704 C447.519487,788.940386 446.683367,788.08835 445.703325,787.427995 C430.087007,776.905663 419.41418,771.646227 413.518519,771.646227 C406.638586,771.646227 378.719577,777.101973 329.537894,788.043323 L308.349997,774.587833 L294.099115,794.363526 L308.361913,817.529429 L329.591691,799.698282 C378.787759,811.341683 406.68332,817.146227 413.518519,817.146227 Z M329.25777,789.642341 L329.56074,789.574921 C378.733458,778.632472 406.794376,773.146227 413.518519,773.146227 C419.001251,773.146227 429.505567,778.322623 444.865139,788.671958 C445.677173,789.219109 446.369958,789.925082 446.901703,790.747288 C449.076135,794.109487 448.113259,798.597813 444.75106,800.772244 C429.420096,810.687224 418.955923,815.646227 413.518519,815.646227 C406.84706,815.646227 378.783781,809.80324 329.570615,798.151839 L329.203974,798.065035 L308.728034,815.263025 L295.900885,794.428928 L308.73995,776.612387 L329.25777,789.642341 Z" id="Path-393-Copy" fill="#3D3F4C" fill-rule="nonzero"></path>
                <path d="M583,774.844752 L586.5,807.896227 C584.166667,832.896227 583,845.396227 583,845.396227 C583,845.396227 595.007207,835.299855 619.021622,815.107112 C640.667267,835.299855 657.33033,845.396227 669.010811,845.396227 C678.1886,845.396227 690.442552,837.642573 705.772667,822.135265 L705.772669,822.135266 C713.778858,814.036537 714.281223,801.166631 706.930685,792.468466 C697.985935,781.883812 690.00904,774.193065 683,769.396227 C672.978574,762.537775 656.571648,755.871108 633.779221,749.396227 L637.753247,779.921572 L619.021622,797.746278 L583,774.844752 Z" id="Path-393-Copy-2" fill="#26B7A0"></path>
                <path d="M583,774.344752 L586.5,807.396227 C584.166667,832.396227 583,844.896227 583,844.896227 C583,844.896227 595.007207,834.799855 619.021622,814.607112 C640.667267,834.799855 657.33033,844.896227 669.010811,844.896227 C678.1886,844.896227 690.442552,837.142573 705.772667,821.635265 L705.772669,821.635266 C713.778858,813.536537 714.281223,800.666631 706.930685,791.968466 C697.985935,781.383812 690.00904,773.693065 683,768.896227 C672.978574,762.037775 656.571648,755.371108 633.779221,748.896227 L637.753247,779.421572 L619.021622,797.246278 L583,774.344752 Z" id="Path-393-Copy-2" stroke="#3D3F4C" stroke-width="1.5" fill="#26B7A0" stroke-linejoin="round"></path>
                <path d="M363,400.396227 L367,400.396227 C369.209139,400.396227 371,402.187088 371,404.396227 L371,416.396227 C371,418.605366 369.209139,420.396227 367,420.396227 L363,420.396227 L363,420.396227 L363,400.396227 Z" id="Rectangle" fill="#26B7A0"></path>
                <path d="M363,400.396227 L367,400.396227 C369.209139,400.396227 371,402.187088 371,404.396227 L371,416.396227 C371,418.605366 369.209139,420.396227 367,420.396227 L363,420.396227 L363,400.396227 Z M364.5,401.896227 L364.5,418.896227 L367,418.896227 C368.380712,418.896227 369.5,417.776939 369.5,416.396227 L369.5,404.396227 C369.5,403.015515 368.380712,401.896227 367,401.896227 L364.5,401.896227 Z" id="Rectangle" fill="#3D3F4C" fill-rule="nonzero"></path>
                <path d="M663.5,425.896227 C664.17216,425.896227 664.811842,426.118498 665.332926,426.521125 C666.063234,427.085413 666.5,427.955193 666.5,428.896227 C666.5,430.553081 665.156854,431.896227 663.5,431.896227 C661.843146,431.896227 660.5,430.553081 660.5,428.896227 C660.5,427.239372 661.843146,425.896227 663.5,425.896227 Z M663.5,426.896227 C662.395431,426.896227 661.5,427.791657 661.5,428.896227 C661.5,430.000796 662.395431,430.896227 663.5,430.896227 C664.604569,430.896227 665.5,430.000796 665.5,428.896227 C665.5,428.26825 665.20929,427.689328 664.721506,427.312431 C664.374021,427.043939 663.948914,426.896227 663.5,426.896227 Z M688.006803,339.314027 L688.993197,339.478426 L688.423564,342.896227 L675.40977,342.896227 L676.006803,339.314027 L676.993197,339.478426 L676.59023,341.896227 L687.576436,341.896227 L688.006803,339.314027 Z" id="Combined-Shape" fill="#FFFFFF" fill-rule="nonzero"></path>
                <path d="M706,802.804871 L694.163095,798.80352 C691.462755,797.890697 688.537245,797.890697 685.836905,798.80352 L674,802.804871 L674,802.804871 L684.732457,807.5616 C688.086805,809.04828 691.913195,809.04828 695.267543,807.5616 L706,802.804871 L706,802.804871 Z" id="Path-394" fill="#FFFFFF"></path>
                <path d="M685.596726,798.093018 C688.452855,797.127531 691.547145,797.127531 694.403274,798.093018 L694.403274,798.093018 L706.240179,802.094368 C706.887737,802.313269 706.928825,803.213569 706.303897,803.490543 L706.303897,803.490543 L695.57144,808.247273 C692.023571,809.819723 687.976429,809.819723 684.42856,808.247273 L684.42856,808.247273 L673.696103,803.490543 C673.071175,803.213569 673.112263,802.313269 673.759821,802.094368 L673.759821,802.094368 Z M693.922916,799.514023 C691.378365,798.653862 688.621635,798.653862 686.077084,799.514023 L686.077084,799.514023 L676.063431,802.899041 L685.036353,806.875928 C688.197182,808.276838 691.802818,808.276838 694.963647,806.875928 L694.963647,806.875928 L703.936569,802.899041 Z M690,801.396227 C691.104569,801.396227 692,802.291657 692,803.396227 C692,804.500796 691.104569,805.396227 690,805.396227 C688.895431,805.396227 688,804.500796 688,803.396227 C688,802.291657 688.895431,801.396227 690,801.396227 Z" id="Combined-Shape" fill="#3D3F4C" fill-rule="nonzero"></path>
                <path d="M432,793.804871 L420.163095,789.80352 C417.462755,788.890697 414.537245,788.890697 411.836905,789.80352 L400,793.804871 L400,793.804871 L410.732457,798.5616 C414.086805,800.04828 417.913195,800.04828 421.267543,798.5616 L432,793.804871 L432,793.804871 Z" id="Path-394-Copy" fill="#FFFFFF"></path>
                <path d="M411.596726,789.093018 C414.452855,788.127531 417.547145,788.127531 420.403274,789.093018 L420.403274,789.093018 L432.240179,793.094368 C432.887737,793.313269 432.928825,794.213569 432.303897,794.490543 L432.303897,794.490543 L421.57144,799.247273 C418.023571,800.819723 413.976429,800.819723 410.42856,799.247273 L410.42856,799.247273 L399.696103,794.490543 C399.071175,794.213569 399.112263,793.313269 399.759821,793.094368 L399.759821,793.094368 Z M419.922916,790.514023 C417.378365,789.653862 414.621635,789.653862 412.077084,790.514023 L412.077084,790.514023 L402.063431,793.899041 L411.036353,797.875928 C414.197182,799.276838 417.802818,799.276838 420.963647,797.875928 L420.963647,797.875928 L429.936569,793.899041 Z M416,792.396227 C417.104569,792.396227 418,793.291657 418,794.396227 C418,795.500796 417.104569,796.396227 416,796.396227 C414.895431,796.396227 414,795.500796 414,794.396227 C414,793.291657 414.895431,792.396227 416,792.396227 Z" id="Combined-Shape" fill="#3D3F4C" fill-rule="nonzero"></path>
                <path d="M175,741.804871 L163.163095,737.80352 C160.462755,736.890697 157.537245,736.890697 154.836905,737.80352 L143,741.804871 L143,741.804871 L153.732457,746.5616 C157.086805,748.04828 160.913195,748.04828 164.267543,746.5616 L175,741.804871 L175,741.804871 Z" id="Path-394-Copy-2" fill="#FFFFFF"></path>
                <path d="M175.240179,741.094368 L163.403274,737.093018 C160.547145,736.127531 157.452855,736.127531 154.596726,737.093018 L142.759821,741.094368 C142.112263,741.313269 142.071175,742.213569 142.696103,742.490543 L153.42856,747.247273 C156.976429,748.819723 161.023571,748.819723 164.57144,747.247273 L175.303897,742.490543 C175.928825,742.213569 175.887737,741.313269 175.240179,741.094368 Z M163.963647,745.875928 C160.802818,747.276838 157.197182,747.276838 154.036353,745.875928 L145.063431,741.899041 L155.077084,738.514023 C157.621635,737.653862 160.378365,737.653862 162.922916,738.514023 L172.936569,741.899041 L163.963647,745.875928 Z" id="Path-394-Copy-2" fill="#3D3F4C" fill-rule="nonzero"></path>
                <path d="M533.794334,335.24596 C534.041693,334.558854 535.025319,334.594549 535.222223,335.297778 L535.222223,335.297778 L537.843337,344.658899 C538.460111,346.861663 538.11084,349.222795 536.882746,351.152657 C536.70532,351.43147 536.484558,351.680199 536.228781,351.889471 C534.900346,352.976372 532.94233,352.780571 531.855429,351.452136 L531.855429,351.452136 L531.669532,351.224928 C530.106852,349.314986 529.661983,346.724715 530.497861,344.40283 L530.497861,344.40283 Z M534.410639,337.962445 L531.909193,344.910909 C531.251948,346.73659 531.601745,348.773299 532.830468,350.275072 L532.830468,350.275072 L533.016365,350.50228 C533.578675,351.189547 534.591657,351.290845 535.278924,350.728535 C535.411251,350.620268 535.525462,350.491588 535.617254,350.347343 C536.616559,348.777007 536.900763,346.855743 536.398891,345.063344 L536.398891,345.063344 L534.410639,337.962445 Z M497.819271,336.744196 L498.043742,336.751277 C500.48235,336.893745 504.035287,338.526814 506.023243,340.462676 C506.319999,340.751656 506.326303,341.226488 506.037324,341.523243 C505.748344,341.819999 505.273512,341.826303 504.976757,341.537324 C503.241541,339.847578 500.02613,338.36965 497.956258,338.248723 C496.818394,338.182247 495.710673,338.874572 494.613055,340.432046 C494.374442,340.770627 493.906535,340.851667 493.567954,340.613055 C493.229373,340.374442 493.148333,339.906535 493.386945,339.567954 C494.756478,337.624646 496.315424,336.650305 498.043742,336.751277 Z M499.469691,314.647271 C499.599927,314.254064 500.024261,314.040885 500.417468,314.171121 C500.810674,314.301357 501.023854,314.725691 500.893618,315.118897 L500.893618,315.118897 L495.550382,331.251121 C495.333322,331.906465 495.688622,332.613689 496.343966,332.830749 C496.57708,332.90796 496.827772,332.914797 497.064748,332.850407 L497.064748,332.850407 L502.536246,331.363719 C502.935967,331.255108 503.348051,331.4911 503.456661,331.890821 C503.565271,332.290542 503.329279,332.702625 502.929558,332.811236 L502.929558,332.811236 L497.45806,334.297924 C496.936714,334.439582 496.38519,334.42454 495.87234,334.254676 C494.430582,333.777144 493.648923,332.221252 494.126455,330.779495 L494.126455,330.779495 Z M525.570085,312.8297 C526.605371,312.863954 527.397247,312.976707 529.074765,313.279013 C530.284391,313.497 530.776541,313.567439 531.255969,313.569839 C531.514614,313.571134 531.839917,313.557154 532.311707,313.526676 C532.473774,313.516207 533.402814,313.451201 533.686785,313.433216 C534.413169,313.387211 535.005375,313.362819 535.575922,313.361011 C536.851363,313.356969 537.891102,313.470365 538.739574,313.750828 C539.585765,314.030537 541.4053,315.160375 544.327884,317.197564 C546.479996,318.697695 547.008531,321.658424 545.508399,323.810536 C545.141424,324.337005 544.671572,324.783652 544.127207,325.123515 C541.24304,326.924185 539.487669,327.9237 538.743052,328.173878 C537.983739,328.428994 537.199314,328.568681 536.356686,328.616418 C535.480068,328.666079 534.87225,328.634097 533.336981,328.500771 C532.54281,328.431803 532.140639,328.405543 531.712823,328.403401 C531.354187,328.401605 530.951191,328.424811 530.43218,328.473516 C530.119767,328.502833 528.936321,328.630878 528.932158,328.63131 C526.196335,328.915442 524.352215,328.853962 522.271813,328.176026 C521.535194,327.935986 519.594472,326.904406 516.326624,325.028203 C514.051578,323.722005 513.266171,320.818834 514.572369,318.543788 C514.950892,317.884503 515.482127,317.325702 516.121437,316.91434 C519.641724,314.649222 521.619361,313.463973 522.27031,313.250331 C523.288281,312.916231 524.375396,312.790172 525.570085,312.8297 Z M522.738064,314.675535 C522.273658,314.827953 520.266683,316.030786 516.9331,318.175769 C516.495677,318.457227 516.1322,318.839565 515.873211,319.290655 C514.979496,320.847265 515.51688,322.833647 517.07349,323.727361 C520.216736,325.532025 522.145419,326.557205 522.736561,326.749839 C524.573061,327.348295 526.232499,327.403619 528.777207,327.139335 C528.771786,327.139898 529.96708,327.010571 530.292032,326.980077 C530.855948,326.927158 531.30437,326.901337 531.720333,326.90342 C532.20179,326.90583 532.63285,326.933977 533.466756,327.006395 C534.928797,327.133362 535.492012,327.162998 536.271845,327.118819 C536.987,327.078304 537.640405,326.961948 538.265322,326.751987 C538.847941,326.556237 540.576456,325.572014 543.332822,323.851134 C543.705283,323.618596 544.02676,323.312995 544.277849,322.95278 C545.304255,321.480282 544.942626,319.45452 543.470128,318.428114 C540.693224,316.492472 538.916216,315.389041 538.2688,315.175037 C537.603041,314.95497 536.708674,314.857429 535.580676,314.861004 C535.044984,314.862701 534.48054,314.88595 533.781597,314.930217 C533.503934,314.947802 532.57616,315.012719 532.408407,315.023556 C531.904486,315.05611 531.550284,315.071332 531.248458,315.06982 C530.647642,315.066812 530.11343,314.990354 528.808735,314.755234 C527.202122,314.465706 526.459341,314.359943 525.520482,314.328879 C524.490139,314.294789 523.574739,314.400937 522.738064,314.675535 Z M487.685967,313.773422 C488.702003,314.033475 489.486268,314.425607 490.03033,314.96967 C490.329626,315.268966 490.910016,316.026639 491.820544,317.296648 C493.349084,319.428673 492.859868,322.396147 490.727847,323.924691 C490.692623,323.949783 490.692623,323.949783 490.657096,323.974446 C489.224641,324.962452 488.280425,325.530428 487.737171,325.711512 C486.850781,326.006976 485.726465,326.006976 484.354547,325.73576 L484.354547,325.73576 L484.645453,324.26424 C485.784407,324.4894 486.660091,324.4894 487.262829,324.288488 C487.620787,324.169168 488.497415,323.641849 489.805435,322.739669 C489.829743,322.722795 489.829743,322.722795 489.853844,322.705626 C491.312594,321.659781 491.647321,319.629403 490.601479,318.17065 C489.746957,316.978759 489.186673,316.247333 488.96967,316.03033 C488.639058,315.699718 488.089989,315.425184 487.314033,315.226578 L487.314033,315.226578 Z" id="Combined-Shape" fill="#3D3F4C" fill-rule="nonzero"></path>
                <circle id="Oval" fill="#3D3F4C" cx="524" cy="320.5" r="3.5"></circle>
                <path d="M550.5,301 C516.103763,305.738751 494.103763,307.738751 484.5,307 C476.732443,306.402496 470.559144,303.453548 465.980105,298.153158 C464.896964,296.899379 465.035288,295.004931 466.289064,293.921786 C466.709908,293.558217 467.223529,293.318786 467.772574,293.23023 L494,289 L494,289 L476,281 L510.5,282.5 L494,272.5 L526.5,278 L546.99795,280.120478 C559.837495,281.448706 569.326776,292.694532 568.47621,305.574542 L566.5,335.5 L566.5,335.5 L550.5,301 Z" id="Path-387" fill="#3D3F4C"></path>
                <path d="M159,744.396227 C160.104569,744.396227 161,743.500796 161,742.396227 C161,741.291657 160.104569,740.396227 159,740.396227 C157.895431,740.396227 157,741.291657 157,742.396227 C157,743.500796 157.895431,744.396227 159,744.396227 Z" id="Oval-Copy-3" fill="#3D3F4C" fill-rule="nonzero"></path>
                <path d="M657.441501,796.06151 C657.808927,795.870274 657.951757,795.41739 657.760522,795.049964 C657.569286,794.682538 657.116401,794.539708 656.748975,794.730943 L634.653737,806.230943 C634.169128,806.48317 634.108151,807.152292 634.539185,807.487961 C640.334085,812.000763 645.099378,814.874428 648.86141,816.108845 C652.614011,817.340167 658.646255,818.013981 666.98812,818.146322 C667.402282,818.152694 667.743345,817.822268 667.750095,817.408107 C667.756467,816.993945 667.426042,816.652882 667.01188,816.646321 C658.808927,816.51637 652.904663,815.856851 649.329066,814.683609 C645.959277,813.577897 641.638222,811.023139 636.388132,807.019244 L657.441501,796.06151 Z" id="Path-395" fill="#3D3F4C" fill-rule="nonzero"></path>
                <path d="M635,807.646227 C641.740476,807.646227 648.479678,806.635346 655.215511,804.614596 C655.612256,804.495573 655.837393,804.07746 655.71837,803.680716 C655.599346,803.283971 655.181234,803.058834 654.784489,803.177857 C648.186989,805.157107 641.592858,806.146227 635,806.146227 C634.585786,806.146227 634.25,806.482013 634.25,806.896227 C634.25,807.31044 634.585786,807.646227 635,807.646227 Z" id="Path-396" fill="#3D3F4C" fill-rule="nonzero"></path>
                <path d="M635.118453,807.541922 C642.602489,811.964306 650.942859,813.496211 660.109911,812.138129 C660.519653,812.077427 660.802605,811.696057 660.741903,811.286315 C660.6812,810.876574 660.29983,810.593622 659.890089,810.654324 C651.057141,811.962909 643.064178,810.494814 635.881547,806.250532 C635.52494,806.039809 635.065028,806.158072 634.854305,806.51468 C634.643583,806.871287 634.761846,807.331199 635.118453,807.541922 Z" id="Path-397" fill="#3D3F4C" fill-rule="nonzero"></path>
                <path d="M638.492851,779.961556 L648.242851,771.461556 C648.555074,771.189362 648.587524,770.715598 648.31533,770.403375 C648.043135,770.091152 647.569371,770.058703 647.257149,770.330897 L637.507149,778.830897 C637.194926,779.103091 637.162476,779.576855 637.43467,779.889078 C637.706865,780.201301 638.180629,780.23375 638.492851,779.961556 Z" id="Path-398" fill="#3D3F4C" fill-rule="nonzero"></path>
                <path d="M583.977411,788.858267 C584.274518,788.569649 584.749341,788.576531 585.03796,788.873637 L585.03796,788.873637 L602.03796,806.373637 C602.335692,806.680127 602.301552,807.120195 602.062151,807.394326 L585.082934,828.368125 L583.917066,827.424328 L599.929,807.645226 L586.5,807.646226 C586.120304,807.646226 585.806509,807.364073 585.756846,806.997997 L585.75,806.896227 C585.75,806.482013 586.085786,806.146226 586.5,806.146226 L586.5,806.146226 L599.725811,806.146226 L583.96204,789.918816 C583.673422,789.621709 583.680304,789.146885 583.977411,788.858267 Z" id="Combined-Shape" fill="#3D3F4C" fill-rule="nonzero"></path>
                <path d="M308.274151,774.68104 C308.669138,774.556307 309.090454,774.775391 309.215187,775.170378 L309.215187,775.170378 L315.215187,794.170378 C315.319729,794.501428 315.1834,794.83673 314.924262,795.015191 L315.222397,795.097826 L309.222397,816.597826 L307.777603,816.194627 L313.651,795.146026 L295,795.146227 C294.620304,795.146227 294.306509,794.864073 294.256847,794.497997 L294.25,794.396227 C294.25,793.982013 294.585786,793.646227 295,793.646227 L295,793.646227 L313.47665,793.646227 L307.784813,775.622075 C307.66008,775.227088 307.879165,774.805772 308.274151,774.68104 Z" id="Combined-Shape" fill="#3D3F4C" fill-rule="nonzero"></path>
                <path d="M391.842853,786.162875 C392.247872,786.076085 392.646562,786.334061 392.733352,786.73908 C392.820142,787.144099 392.562166,787.542789 392.157147,787.629578 L392.157147,787.629578 L363.581999,793.752071 L388.012095,794.146324 L387.987905,795.646129 L364.154999,795.262071 L392.167119,801.665083 C392.537268,801.749688 392.780303,802.09467 392.747146,802.462608 L392.731144,802.563345 C392.638847,802.967145 392.236681,803.219668 391.832881,803.127371 L391.832881,803.127371 L356.832881,795.127371 C356.050263,794.948486 356.057872,793.831085 356.842853,793.662875 L356.842853,793.662875 Z" id="Combined-Shape" fill="#3D3F4C" fill-rule="nonzero"></path>
                <path d="M15.5025194,698.334966 C15.8124948,698.060215 16.2865092,698.088771 16.5612602,698.398746 L16.5612602,698.398746 L55.5612602,742.398746 C55.5663056,742.404438 55.5712506,742.410189 55.5760952,742.415997 C55.5903659,742.433081 55.6038123,742.450722 55.6164709,742.468951 C55.6245633,742.480647 55.6324711,742.492771 55.6399952,742.505067 C55.6536823,742.527352 55.6660896,742.550194 55.677308,742.573712 C55.68113,742.581945 55.684684,742.589766 55.6880975,742.597634 C55.7278725,742.688733 55.75,742.789896 55.75,742.896227 L55.7443469,742.804239 C55.7456605,742.814893 55.7467455,742.825572 55.7476017,742.836267 L55.75,742.896227 C55.75,742.90272 55.7499175,742.909194 55.7497534,742.915648 C55.7494934,742.925875 55.7490144,742.936245 55.7483205,742.946605 C55.7466925,742.971138 55.7439462,742.994893 55.7401178,743.018285 C55.7378005,743.032037 55.7350053,743.046471 55.7317812,743.060833 C55.7264249,743.085123 55.7199347,743.108537 55.7123689,743.131461 C55.7094807,743.139862 55.706428,743.148579 55.7032087,743.157252 C55.6938869,743.182645 55.6832718,743.207064 55.6714384,743.230768 C55.6509565,743.271638 55.6264524,743.311309 55.5979038,743.349008 L55.6558639,743.260297 C55.6364055,743.295276 55.6142301,743.328536 55.5896228,743.359791 L16.5979038,794.849008 C16.3478395,795.179221 15.8774316,795.244195 15.5472185,794.99413 C15.2170054,794.744066 15.1520319,794.273658 15.4020962,793.943445 L15.4020962,793.943445 L53.4899585,743.646218 L42.5,743.646227 C42.1203042,743.646227 41.806509,743.364073 41.7568466,742.997997 L41.75,742.896227 C41.75,742.482013 42.0857864,742.146227 42.5,742.146227 L42.5,742.146227 L53.3319585,742.146218 L15.4387398,699.393707 C15.1889662,699.111911 15.1898587,698.694546 15.4249744,698.414566 Z M117.038376,746.305123 C117.364834,746.050175 117.836156,746.108145 118.091104,746.434603 C118.346051,746.76106 118.288081,747.232382 117.961624,747.48733 L117.961624,747.48733 L65.4616238,788.48733 C65.1351663,788.742278 64.6638442,788.684308 64.4088964,788.35785 C64.1539486,788.031393 64.2119187,787.560071 64.5383762,787.305123 L64.5383762,787.305123 Z M64.6447562,729.235695 C104.529418,707.785121 133.955997,703.24502 152.913443,715.770475 C153.259036,715.998813 153.35409,716.464077 153.125751,716.80967 C152.897413,717.155263 152.43215,717.250316 152.086557,717.021978 C133.710669,704.880767 104.803915,709.340666 65.3552438,730.556758 C64.9904424,730.752954 64.5356643,730.616272 64.3394685,730.25147 C64.1432728,729.886669 64.2799547,729.431891 64.6447562,729.235695 Z" id="Combined-Shape" fill="#3D3F4C" fill-rule="nonzero"></path>
                <path d="M99,780.896227 C112.666667,775.562893 118.833333,764.22956 117.5,746.896227" id="Path-408" stroke="#3D3F4C" stroke-width="1.5" stroke-linecap="round" stroke-linejoin="round"></path>
                <path d="M76.1204125,762.817639 C87.9275665,745.434885 101.546041,740.409019 117.187509,747.578025 C117.564056,747.750609 118.009215,747.585265 118.181799,747.208718 C118.354383,746.832171 118.189038,746.387012 117.812491,746.214428 C101.453959,738.716768 87.0724335,744.024235 74.8795875,761.974814 C74.6468479,762.317459 74.7359434,762.7839 75.0785877,763.016639 C75.4212321,763.249379 75.8876729,763.160283 76.1204125,762.817639 Z" id="Path-409" fill="#3D3F4C" fill-rule="nonzero"></path>
                <path d="M572.767442,461.735421 C572.856252,461.33084 573.256225,461.074858 573.660805,461.163668 C574.065386,461.252479 574.321369,461.652451 574.232558,462.057032 L574.232558,462.057032 L569.732558,482.557032 C569.643748,482.961613 569.243775,483.217595 568.839195,483.128785 C568.434614,483.039974 568.178631,482.640002 568.267442,482.235421 L568.267442,482.235421 Z M557.349319,443.658175 L569.576164,446.257071 L564.950129,468.020856 C564.232464,471.397206 560.913608,473.552495 557.537258,472.83483 C554.160908,472.117165 552.005619,468.798309 552.723284,465.421959 L557.349319,443.658175 Z M557.673,449.349227 L554.190505,465.733827 C553.64508,468.299853 555.2831,470.822183 557.849126,471.367609 C560.415152,471.913034 562.937482,470.275014 563.482908,467.708988 L566.965,451.324227 L557.673,449.349227 Z M527.75,441.646227 L527.75,456.396227 C527.75,464.266284 521.370058,470.646227 513.5,470.646227 C505.629942,470.646227 499.25,464.266284 499.25,456.396227 L499.25,441.646227 L527.75,441.646227 Z M526.25,447.646227 L500.75,447.646227 L500.75,456.396227 C500.75,463.437857 506.458369,469.146227 513.5,469.146227 C520.541631,469.146227 526.25,463.437857 526.25,456.396227 L526.25,447.646227 Z M558.504673,445.437264 L557.984,447.882227 L567.277,449.857227 L567.797075,447.412425 L558.504673,445.437264 Z M526.25,443.146227 L500.75,443.146227 L500.75,446.146227 L526.25,446.146227 L526.25,443.146227 Z M530.747573,400.335938 L533.247573,431.335938 C533.28278,431.772505 532.937984,432.146227 532.5,432.146227 L516.5,432.146227 C515.885675,432.146227 515.531907,431.448099 515.895196,430.952704 L526.210151,416.886857 L499.342853,411.129578 C498.594235,410.96916 498.538829,409.922082 499.266337,409.683554 L529.766337,399.683554 C530.227447,399.532371 530.708566,399.852247 530.747573,400.335938 Z M562.421126,401.77562 L576.421126,411.27562 C576.911673,411.608491 576.84033,412.352061 576.295439,412.585585 L562.951042,418.304613 L567.703312,431.135741 C567.884735,431.625584 567.52236,432.146227 567,432.146227 L555,432.146227 C554.514586,432.146227 554.15704,431.692109 554.270938,431.220246 L561.270938,402.220246 C561.393852,401.711031 561.987662,401.481483 562.421126,401.77562 Z M529.32896,401.405523 L502.3706,410.244329 L527.657147,415.662875 C528.188929,415.776828 528.42642,416.401182 528.104804,416.839749 L517.980054,430.646227 L531.687081,430.646227 L529.32896,401.405523 Z M562.474965,403.624895 L555.952574,430.646227 L565.922434,430.646227 L561.296688,418.156712 C561.157905,417.781998 561.33728,417.364274 561.704561,417.206868 L574.444332,411.746966 L562.474965,403.624895 Z" id="Combined-Shape" fill="#3D3F4C" fill-rule="nonzero"></path>
                <path d="M639,441.896227 L630,433.896227 C633.48795,417.738603 635.48795,408.405269 636,405.896227 C636.409339,403.890466 638.62165,400.825382 642.636933,396.700976 C645.011082,394.262305 647.07234,391.537504 648.773137,388.589456 L653.5,380.396227 C660.166667,380.396227 662.333333,383.22956 660,388.896227 C658.463806,392.626984 653.604497,400.403272 645.422074,412.225091" id="Path" fill="#FFFFFF"></path>
                <path d="M636.234853,406.046197 C636.605891,404.228109 638.756678,401.248265 642.674325,397.224149 C645.091903,394.740869 647.190867,391.966223 648.922776,388.964247 L653.430912,381.150146 C659.237948,381.257727 660.876368,383.583821 658.806491,388.610664 C657.298647,392.272573 652.454789,400.024135 644.305383,411.798251 L645.538765,412.651931 C653.754205,400.78241 658.628965,392.981396 660.193509,389.181789 C662.739979,382.997503 660.177238,379.646227 653,379.646227 C652.731965,379.646227 652.484304,379.789267 652.350361,380.021435 L647.623498,388.214664 C645.953813,391.108784 643.930261,393.783742 641.599542,396.177803 C637.486622,400.402499 635.212787,403.552822 634.765147,405.746257 C634.253956,408.251094 632.253865,417.584848 628.766887,433.737969 C628.709806,434.002392 628.799543,434.277064 629.001727,434.456784 L638.001727,442.456784 L638.998273,441.33567 L630.325492,433.626531 C633.757355,417.727523 635.726489,408.537178 636.234853,406.046197 Z" id="Path" fill="#3D3F4C" fill-rule="nonzero"></path>
                <path d="M355,433.896227 L354.586051,433.847664 C352.320902,433.581928 350.52263,431.817055 350.21448,429.557286 L349.987971,427.896227 C349.626408,425.244762 351.48274,422.802221 354.134204,422.440658 C354.351172,422.411071 354.569896,422.396227 354.788872,422.396227 L355.237971,422.396227 L355.237971,422.396227 L374.737971,422.396227" id="Shape" fill="#FFFFFF"></path>
                <path d="M355.662698,433.664086 L354.561738,433.419429 C352.825389,433.033573 351.512991,431.607259 351.272664,429.844865 L350.993123,427.794892 C350.687525,425.553843 352.256518,423.489378 354.497567,423.18378 C354.680951,423.158773 354.86582,423.146227 355.050901,423.146227 L375,423.146227 L375,421.646227 L355.050901,421.646227 C354.79803,421.646227 354.54545,421.663369 354.294898,421.697535 C351.233018,422.115064 349.089348,424.935682 349.506877,427.997562 L349.786419,430.047535 C350.111567,432.431951 351.887165,434.36167 354.236342,434.883709 L355.337302,435.128367 L355.662698,433.664086 Z" id="Shape" fill="#3D3F4C" fill-rule="nonzero"></path>
                <path d="M533.245554,431.314682 C533.200518,430.902924 532.830213,430.605637 532.418455,430.650673 C532.006697,430.695709 531.70941,431.066014 531.754446,431.477772 L538.754446,495.477772 C538.845806,496.313062 540.031378,496.3893 540.228969,495.57259 L562.728969,402.57259 C562.826372,402.169992 562.578962,401.76466 562.176363,401.667258 C561.773765,401.569855 561.368434,401.817265 561.271031,402.219863 L539.779342,491.052176 L533.245554,431.314682 Z" id="Path-412" fill="#3D3F4C" fill-rule="nonzero"></path>
                <path d="M756.476035,579.036296 L756.62267,580.908296 L773.285707,588.158841 C773.731734,588.352921 774.155179,588.594437 774.548807,588.879 L774.838324,589.100425 C777.741328,591.44738 778.192094,595.703312 775.84514,598.606315 C775.38462,599.175944 774.827939,599.66056 774.200304,600.038222 C771.23022,601.825386 767.373709,600.866441 765.586544,597.896357 L765.586544,597.896357 L758.34467,585.863296 L767.12333,612.197225 C767.243401,612.557436 767.074957,612.944353 766.743371,613.107231 L766.648989,613.145909 C766.256031,613.276894 765.831291,613.064524 765.700305,612.671567 L765.700305,612.671567 L757.08667,586.832296 L758.042293,599.006094 C758.080327,599.491027 758.065877,599.978292 757.99942,600.459439 L757.939833,600.819021 C757.230472,604.484049 753.68433,606.880091 750.019301,606.170731 C749.300148,606.03154 748.610912,605.767534 747.982799,605.390666 C745.010457,603.607261 744.046633,599.751966 745.830038,596.779624 L745.830038,596.779624 L755.35867,580.898296 L754.918109,580.166513 L755.61567,580.470296 L756.476035,579.036296 Z M755.347601,583.832496 L747.116278,597.551367 C745.759095,599.813339 746.492571,602.747244 748.754543,604.104427 C749.232541,604.391226 749.757054,604.592136 750.304334,604.698061 C753.156029,605.250002 755.915222,603.385683 756.467163,600.533988 C756.557062,600.069511 756.583878,599.595029 756.546886,599.123381 L756.546886,599.123381 L755.347601,583.832496 Z M758.623134,583.41454 L766.871806,597.122987 C768.23185,599.38324 771.16668,600.113004 773.426933,598.75296 C773.904568,598.465557 774.328205,598.096761 774.678664,597.66327 C776.504789,595.404493 776.154055,592.093026 773.895279,590.266901 C773.527375,589.969467 773.121021,589.723033 772.687214,589.53427 L772.687214,589.53427 L758.623134,583.41454 Z" id="Combined-Shape" fill="#3D3F4C" fill-rule="nonzero" transform="translate(761.141480, 596.110448) rotate(-33.000000) translate(-761.141480, -596.110448) "></path>
                <path d="M666,610.396227 L666,624.202544 C666,626.288361 664.397224,628.024055 662.318009,628.189882 L589.126026,634.02728 C586.322116,634.250904 583.656692,632.774481 582.358993,630.278906 L578,621.896227 L594.5,614.896227 L626,610.396227 L666,610.396227 Z M745,571.396227 L748.5,586.896227 L682.095104,609.492337 C678.863874,610.591853 675.31073,609.20065 673.685091,606.199471 L673.685091,606.199471 L670,599.396227 L686,590.396227 L711,580.896227 L735,572.896227 L745,571.396227 Z" id="Combined-Shape" fill="#FFFFFF"></path>
                <path d="M582.193581,630.124921 L577.460365,621.022582 L594.707088,613.70579 L594.893934,613.653765 L626.393934,609.153765 L626.5,609.146227 L667.25,609.146227 L667.25,623.702544 C667.25,626.179452 665.346704,628.240589 662.877635,628.437508 L589.685653,634.274906 C586.581324,634.52249 583.630319,632.887879 582.193581,630.124921 Z M583.524406,629.432892 C584.683066,631.661084 587.062909,632.979319 589.566399,632.779654 L662.758382,626.942256 C664.447745,626.807522 665.75,625.397271 665.75,623.702544 L665.75,610.646227 L626.553301,610.646227 L595.202881,615.124858 L579.539635,621.769871 L583.524406,629.432892 Z M669.488977,598.604416 L686.132304,589.242545 L686.233587,589.195139 L711.262829,579.684714 L735.262829,571.684714 L735.388745,571.654524 L746.078054,570.051128 L749.880146,586.888964 L682.836708,609.702357 C679.259275,610.919677 675.325436,609.379418 673.525622,606.056684 L669.488977,598.604416 Z M674.84456,605.342259 C676.296023,608.021883 679.468474,609.264028 682.3535,608.282318 L748.119854,585.903489 L744.921946,571.741325 L735.675511,573.12829 L711.766413,581.097314 L686.818827,590.577397 L671.511023,599.188037 L674.84456,605.342259 Z" id="Combined-Shape" fill="#3D3F4C" fill-rule="nonzero"></path>
                <path d="M492.754702,516.480073 C495.708232,542.733674 486.346631,555.646227 464.5,555.646227 C464.085786,555.646227 463.75,555.982013 463.75,556.396227 C463.75,556.81044 464.085786,557.146227 464.5,557.146227 C487.320035,557.146227 497.291768,543.392112 494.245298,516.312381 C494.198992,515.900764 493.827771,515.604621 493.416154,515.650928 C493.004537,515.697235 492.708395,516.068456 492.754702,516.480073 Z" id="Path-420" fill="#3D3F4C" fill-rule="nonzero"></path>
                <path d="M651.26185,628.74673 C651.392971,628.364729 651.829368,628.101818 652.274976,628.295716 L652.274976,628.295716 L668.490816,635.351745 C669.048349,635.594345 669.570599,635.911064 670.043433,636.29333 C672.946436,638.640284 673.397203,642.896216 671.050248,645.79922 C670.589728,646.368848 670.033048,646.853464 669.405412,647.231126 C666.435329,649.018291 662.578817,648.059345 660.791653,645.089262 L660.791653,645.089262 L653.730985,633.355308 L662.689646,660.229601 C662.809716,660.589812 662.641272,660.976729 662.309687,661.139606 L662.215304,661.178284 C661.822347,661.30927 661.397607,661.0969 661.266621,660.703942 L661.266621,660.703942 L652.652985,634.863308 L653.608609,647.038469 C653.646643,647.523403 653.632192,648.010668 653.565735,648.491815 L653.506148,648.851396 C652.796788,652.516424 649.250645,654.912467 645.585617,654.203106 C644.866464,654.063915 644.177228,653.799909 643.549115,653.423042 C640.576772,651.639636 639.612949,647.784341 641.396354,644.811999 L641.396354,644.811999 L650.835014,629.0809 C650.928938,628.924359 651.059258,628.82104 651.202798,628.765492 Z M650.913916,631.864871 L642.682593,645.583743 C641.32541,647.845714 642.058886,650.779619 644.320858,652.136802 C644.798856,652.423601 645.32337,652.624511 645.87065,652.730437 C648.722345,653.282378 651.481537,651.418058 652.033478,648.566363 C652.123377,648.101887 652.150193,647.627404 652.113201,647.155756 L652.113201,647.155756 L650.913916,631.864871 Z M653.828242,630.607444 L662.076915,644.315891 C663.436959,646.576144 666.371789,647.305908 668.632042,645.945864 C669.109677,645.658461 669.533314,645.289665 669.883773,644.856174 C671.709898,642.597397 671.359164,639.28593 669.100387,637.459805 C668.732484,637.162371 668.32613,636.915937 667.892323,636.727174 L667.892323,636.727174 L653.828242,630.607444 Z" id="Combined-Shape" fill="#3D3F4C" fill-rule="nonzero" transform="translate(656.527192, 644.723641) rotate(1.000000) translate(-656.527192, -644.723641) "></path>
            </g>
        </g>
    </g>
</svg>