<svg height="686" viewBox="0 0 674 686" width="674" xmlns="http://www.w3.org/2000/svg"><g fill="#feb64d" transform="matrix(-.94551858 .32556815 -.32556815 -.94551858 682.469109 512.009849)"><ellipse cx="16.572587" cy="2.548672" rx="2.549629" ry="2.548672"/><ellipse cx="43.343688" cy="2.548672" rx="2.549629" ry="2.548672"/><ellipse cx="70.11479" cy="2.548672" rx="2.549629" ry="2.548672"/><ellipse cx="98.160706" cy="2.548672" rx="2.549629" ry="2.548672"/><ellipse cx="124.931807" cy="2.548672" rx="2.549629" ry="2.548672"/><ellipse cx="151.702909" cy="2.548672" rx="2.549629" ry="2.548672"/><ellipse cx="178.474011" cy="2.548672" rx="2.549629" ry="2.548672"/><ellipse cx="206.519927" cy="2.548672" rx="2.549629" ry="2.548672"/><ellipse cx="233.291028" cy="2.548672" rx="2.549629" ry="2.548672"/><ellipse cx="261.336944" cy="2.548672" rx="2.549629" ry="2.548672"/><ellipse cx="286.833232" cy="2.548672" rx="2.549629" ry="2.548672"/><ellipse cx="314.879147" cy="2.548672" rx="2.549629" ry="2.548672"/><ellipse cx="341.650249" cy="2.548672" rx="2.549629" ry="2.548672"/><ellipse cx="369.696165" cy="2.548672" rx="2.549629" ry="2.548672"/><ellipse cx="396.467267" cy="2.548672" rx="2.549629" ry="2.548672"/><ellipse cx="423.238368" cy="2.548672" rx="2.549629" ry="2.548672"/><ellipse cx="450.00947" cy="2.548672" rx="2.549629" ry="2.548672"/><ellipse cx="476.780571" cy="2.548672" rx="2.549629" ry="2.548672"/><ellipse cx="504.826487" cy="2.548672" rx="2.549629" ry="2.548672"/><ellipse cx="531.597589" cy="2.548672" rx="2.549629" ry="2.548672"/><ellipse cx="2.549629" cy="29.309729" rx="2.549629" ry="2.548672"/><ellipse cx="29.32073" cy="29.309729" rx="2.549629" ry="2.548672"/><ellipse cx="57.366646" cy="29.309729" rx="2.549629" ry="2.548672"/><ellipse cx="84.137748" cy="29.309729" rx="2.549629" ry="2.548672"/><ellipse cx="112.183664" cy="29.309729" rx="2.549629" ry="2.548672"/><ellipse cx="137.679951" cy="29.309729" rx="2.549629" ry="2.548672"/><ellipse cx="165.725867" cy="29.309729" rx="2.549629" ry="2.548672"/><ellipse cx="192.496969" cy="29.309729" rx="2.549629" ry="2.548672"/><ellipse cx="219.26807" cy="29.309729" rx="2.549629" ry="2.548672"/><ellipse cx="247.313986" cy="29.309729" rx="2.549629" ry="2.548672"/><ellipse cx="274.085088" cy="29.309729" rx="2.549629" ry="2.548672"/><ellipse cx="300.856189" cy="29.309729" rx="2.549629" ry="2.548672"/><ellipse cx="327.627291" cy="29.309729" rx="2.549629" ry="2.548672"/><ellipse cx="355.673207" cy="29.309729" rx="2.549629" ry="2.548672"/><ellipse cx="382.444309" cy="29.309729" rx="2.549629" ry="2.548672"/><ellipse cx="410.490225" cy="29.309729" rx="2.549629" ry="2.548672"/><ellipse cx="435.986512" cy="29.309729" rx="2.549629" ry="2.548672"/><ellipse cx="464.032428" cy="29.309729" rx="2.549629" ry="2.548672"/><ellipse cx="490.803529" cy="29.309729" rx="2.549629" ry="2.548672"/><ellipse cx="518.849445" cy="29.309729" rx="2.549629" ry="2.548672"/><ellipse cx="16.572587" cy="56.070785" rx="2.549629" ry="2.548672"/><ellipse cx="43.343688" cy="56.070785" rx="2.549629" ry="2.548672"/><ellipse cx="70.11479" cy="56.070785" rx="2.549629" ry="2.548672"/><ellipse cx="98.160706" cy="56.070785" rx="2.549629" ry="2.548672"/><ellipse cx="124.931807" cy="56.070785" rx="2.549629" ry="2.548672"/><ellipse cx="151.702909" cy="56.070785" rx="2.549629" ry="2.548672"/><ellipse cx="178.474011" cy="56.070785" rx="2.549629" ry="2.548672"/><ellipse cx="206.519927" cy="56.070785" rx="2.549629" ry="2.548672"/><ellipse cx="233.291028" cy="56.070785" rx="2.549629" ry="2.548672"/><ellipse cx="261.336944" cy="56.070785" rx="2.549629" ry="2.548672"/><ellipse cx="286.833232" cy="56.070785" rx="2.549629" ry="2.548672"/><ellipse cx="314.879147" cy="56.070785" rx="2.549629" ry="2.548672"/><ellipse cx="341.650249" cy="56.070785" rx="2.549629" ry="2.548672"/><ellipse cx="369.696165" cy="56.070785" rx="2.549629" ry="2.548672"/><ellipse cx="396.467267" cy="56.070785" rx="2.549629" ry="2.548672"/><ellipse cx="423.238368" cy="56.070785" rx="2.549629" ry="2.548672"/><ellipse cx="450.00947" cy="56.070785" rx="2.549629" ry="2.548672"/><ellipse cx="476.780571" cy="56.070785" rx="2.549629" ry="2.548672"/><ellipse cx="504.826487" cy="56.070785" rx="2.549629" ry="2.548672"/><ellipse cx="531.597589" cy="56.070785" rx="2.549629" ry="2.548672"/><ellipse cx="2.549629" cy="84.106178" rx="2.549629" ry="2.548672"/><ellipse cx="29.32073" cy="84.106178" rx="2.549629" ry="2.548672"/><ellipse cx="57.366646" cy="84.106178" rx="2.549629" ry="2.548672"/><ellipse cx="84.137748" cy="84.106178" rx="2.549629" ry="2.548672"/><ellipse cx="112.183664" cy="84.106178" rx="2.549629" ry="2.548672"/><ellipse cx="137.679951" cy="84.106178" rx="2.549629" ry="2.548672"/><ellipse cx="165.725867" cy="84.106178" rx="2.549629" ry="2.548672"/><ellipse cx="192.496969" cy="84.106178" rx="2.549629" ry="2.548672"/><ellipse cx="219.26807" cy="84.106178" rx="2.549629" ry="2.548672"/><ellipse cx="247.313986" cy="84.106178" rx="2.549629" ry="2.548672"/><ellipse cx="274.085088" cy="84.106178" rx="2.549629" ry="2.548672"/><ellipse cx="300.856189" cy="84.106178" rx="2.549629" ry="2.548672"/><ellipse cx="327.627291" cy="84.106178" rx="2.549629" ry="2.548672"/><ellipse cx="355.673207" cy="84.106178" rx="2.549629" ry="2.548672"/><ellipse cx="382.444309" cy="84.106178" rx="2.549629" ry="2.548672"/><ellipse cx="410.490225" cy="84.106178" rx="2.549629" ry="2.548672"/><ellipse cx="435.986512" cy="84.106178" rx="2.549629" ry="2.548672"/><ellipse cx="464.032428" cy="84.106178" rx="2.549629" ry="2.548672"/><ellipse cx="490.803529" cy="84.106178" rx="2.549629" ry="2.548672"/><ellipse cx="518.849445" cy="84.106178" rx="2.549629" ry="2.548672"/><ellipse cx="16.572587" cy="110.867234" rx="2.549629" ry="2.548672"/><ellipse cx="43.343688" cy="110.867234" rx="2.549629" ry="2.548672"/><ellipse cx="70.11479" cy="110.867234" rx="2.549629" ry="2.548672"/><ellipse cx="98.160706" cy="110.867234" rx="2.549629" ry="2.548672"/><ellipse cx="124.931807" cy="110.867234" rx="2.549629" ry="2.548672"/><ellipse cx="151.702909" cy="110.867234" rx="2.549629" ry="2.548672"/><ellipse cx="178.474011" cy="110.867234" rx="2.549629" ry="2.548672"/><ellipse cx="206.519927" cy="110.867234" rx="2.549629" ry="2.548672"/><ellipse cx="233.291028" cy="110.867234" rx="2.549629" ry="2.548672"/><ellipse cx="261.336944" cy="110.867234" rx="2.549629" ry="2.548672"/><ellipse cx="286.833232" cy="110.867234" rx="2.549629" ry="2.548672"/><ellipse cx="314.879147" cy="110.867234" rx="2.549629" ry="2.548672"/><ellipse cx="341.650249" cy="110.867234" rx="2.549629" ry="2.548672"/><ellipse cx="369.696165" cy="110.867234" rx="2.549629" ry="2.548672"/><ellipse cx="396.467267" cy="110.867234" rx="2.549629" ry="2.548672"/><ellipse cx="423.238368" cy="110.867234" rx="2.549629" ry="2.548672"/><ellipse cx="450.00947" cy="110.867234" rx="2.549629" ry="2.548672"/><ellipse cx="476.780571" cy="110.867234" rx="2.549629" ry="2.548672"/><ellipse cx="504.826487" cy="110.867234" rx="2.549629" ry="2.548672"/><ellipse cx="531.597589" cy="110.867234" rx="2.549629" ry="2.548672"/><ellipse cx="2.549629" cy="137.628291" rx="2.549629" ry="2.548672"/><ellipse cx="29.32073" cy="137.628291" rx="2.549629" ry="2.548672"/><ellipse cx="57.366646" cy="137.628291" rx="2.549629" ry="2.548672"/><ellipse cx="84.137748" cy="137.628291" rx="2.549629" ry="2.548672"/><ellipse cx="112.183664" cy="137.628291" rx="2.549629" ry="2.548672"/><ellipse cx="137.679951" cy="137.628291" rx="2.549629" ry="2.548672"/><ellipse cx="165.725867" cy="137.628291" rx="2.549629" ry="2.548672"/><ellipse cx="192.496969" cy="137.628291" rx="2.549629" ry="2.548672"/><ellipse cx="219.26807" cy="137.628291" rx="2.549629" ry="2.548672"/><ellipse cx="247.313986" cy="137.628291" rx="2.549629" ry="2.548672"/><ellipse cx="274.085088" cy="137.628291" rx="2.549629" ry="2.548672"/><ellipse cx="300.856189" cy="137.628291" rx="2.549629" ry="2.548672"/><ellipse cx="327.627291" cy="137.628291" rx="2.549629" ry="2.548672"/><ellipse cx="355.673207" cy="137.628291" rx="2.549629" ry="2.548672"/><ellipse cx="382.444309" cy="137.628291" rx="2.549629" ry="2.548672"/><ellipse cx="410.490225" cy="137.628291" rx="2.549629" ry="2.548672"/><ellipse cx="435.986512" cy="137.628291" rx="2.549629" ry="2.548672"/><ellipse cx="464.032428" cy="137.628291" rx="2.549629" ry="2.548672"/><ellipse cx="490.803529" cy="137.628291" rx="2.549629" ry="2.548672"/><ellipse cx="518.849445" cy="137.628291" rx="2.549629" ry="2.548672"/><ellipse cx="16.572587" cy="165.663683" rx="2.549629" ry="2.548672"/><ellipse cx="43.343688" cy="165.663683" rx="2.549629" ry="2.548672"/><ellipse cx="70.11479" cy="165.663683" rx="2.549629" ry="2.548672"/><ellipse cx="98.160706" cy="165.663683" rx="2.549629" ry="2.548672"/><ellipse cx="124.931807" cy="165.663683" rx="2.549629" ry="2.548672"/><ellipse cx="151.702909" cy="165.663683" rx="2.549629" ry="2.548672"/><ellipse cx="178.474011" cy="165.663683" rx="2.549629" ry="2.548672"/><ellipse cx="206.519927" cy="165.663683" rx="2.549629" ry="2.548672"/><ellipse cx="233.291028" cy="165.663683" rx="2.549629" ry="2.548672"/><ellipse cx="261.336944" cy="165.663683" rx="2.549629" ry="2.548672"/><ellipse cx="286.833232" cy="165.663683" rx="2.549629" ry="2.548672"/><ellipse cx="314.879147" cy="165.663683" rx="2.549629" ry="2.548672"/><ellipse cx="341.650249" cy="165.663683" rx="2.549629" ry="2.548672"/><ellipse cx="369.696165" cy="165.663683" rx="2.549629" ry="2.548672"/><ellipse cx="396.467267" cy="165.663683" rx="2.549629" ry="2.548672"/><ellipse cx="423.238368" cy="165.663683" rx="2.549629" ry="2.548672"/><ellipse cx="450.00947" cy="165.663683" rx="2.549629" ry="2.548672"/><ellipse cx="476.780571" cy="165.663683" rx="2.549629" ry="2.548672"/><ellipse cx="504.826487" cy="165.663683" rx="2.549629" ry="2.548672"/><ellipse cx="531.597589" cy="165.663683" rx="2.549629" ry="2.548672"/><ellipse cx="2.549629" cy="191.150404" rx="2.549629" ry="2.548672"/><ellipse cx="29.32073" cy="191.150404" rx="2.549629" ry="2.548672"/><ellipse cx="57.366646" cy="191.150404" rx="2.549629" ry="2.548672"/><ellipse cx="84.137748" cy="191.150404" rx="2.549629" ry="2.548672"/><ellipse cx="112.183664" cy="191.150404" rx="2.549629" ry="2.548672"/><ellipse cx="137.679951" cy="191.150404" rx="2.549629" ry="2.548672"/><ellipse cx="165.725867" cy="191.150404" rx="2.549629" ry="2.548672"/><ellipse cx="192.496969" cy="191.150404" rx="2.549629" ry="2.548672"/><ellipse cx="219.26807" cy="191.150404" rx="2.549629" ry="2.548672"/><ellipse cx="247.313986" cy="191.150404" rx="2.549629" ry="2.548672"/><ellipse cx="274.085088" cy="191.150404" rx="2.549629" ry="2.548672"/><ellipse cx="300.856189" cy="191.150404" rx="2.549629" ry="2.548672"/><ellipse cx="327.627291" cy="191.150404" rx="2.549629" ry="2.548672"/><ellipse cx="355.673207" cy="191.150404" rx="2.549629" ry="2.548672"/><ellipse cx="382.444309" cy="191.150404" rx="2.549629" ry="2.548672"/><ellipse cx="410.490225" cy="191.150404" rx="2.549629" ry="2.548672"/><ellipse cx="435.986512" cy="191.150404" rx="2.549629" ry="2.548672"/><ellipse cx="464.032428" cy="191.150404" rx="2.549629" ry="2.548672"/><ellipse cx="490.803529" cy="191.150404" rx="2.549629" ry="2.548672"/><ellipse cx="518.849445" cy="191.150404" rx="2.549629" ry="2.548672"/><ellipse cx="16.572587" cy="219.185796" rx="2.549629" ry="2.548672"/><ellipse cx="43.343688" cy="219.185796" rx="2.549629" ry="2.548672"/><ellipse cx="70.11479" cy="219.185796" rx="2.549629" ry="2.548672"/><ellipse cx="98.160706" cy="219.185796" rx="2.549629" ry="2.548672"/><ellipse cx="124.931807" cy="219.185796" rx="2.549629" ry="2.548672"/><ellipse cx="151.702909" cy="219.185796" rx="2.549629" ry="2.548672"/><ellipse cx="178.474011" cy="219.185796" rx="2.549629" ry="2.548672"/><ellipse cx="206.519927" cy="219.185796" rx="2.549629" ry="2.548672"/><ellipse cx="233.291028" cy="219.185796" rx="2.549629" ry="2.548672"/><ellipse cx="261.336944" cy="219.185796" rx="2.549629" ry="2.548672"/><ellipse cx="286.833232" cy="219.185796" rx="2.549629" ry="2.548672"/><ellipse cx="314.879147" cy="219.185796" rx="2.549629" ry="2.548672"/><ellipse cx="341.650249" cy="219.185796" rx="2.549629" ry="2.548672"/><ellipse cx="369.696165" cy="219.185796" rx="2.549629" ry="2.548672"/><ellipse cx="396.467267" cy="219.185796" rx="2.549629" ry="2.548672"/><ellipse cx="423.238368" cy="219.185796" rx="2.549629" ry="2.548672"/><ellipse cx="450.00947" cy="219.185796" rx="2.549629" ry="2.548672"/><ellipse cx="476.780571" cy="219.185796" rx="2.549629" ry="2.548672"/><ellipse cx="504.826487" cy="219.185796" rx="2.549629" ry="2.548672"/><ellipse cx="531.597589" cy="219.185796" rx="2.549629" ry="2.548672"/><ellipse cx="2.549629" cy="245.946853" rx="2.549629" ry="2.548672"/><ellipse cx="29.32073" cy="245.946853" rx="2.549629" ry="2.548672"/><ellipse cx="57.366646" cy="245.946853" rx="2.549629" ry="2.548672"/><ellipse cx="84.137748" cy="245.946853" rx="2.549629" ry="2.548672"/><ellipse cx="112.183664" cy="245.946853" rx="2.549629" ry="2.548672"/><ellipse cx="137.679951" cy="245.946853" rx="2.549629" ry="2.548672"/><ellipse cx="165.725867" cy="245.946853" rx="2.549629" ry="2.548672"/><ellipse cx="192.496969" cy="245.946853" rx="2.549629" ry="2.548672"/><ellipse cx="219.26807" cy="245.946853" rx="2.549629" ry="2.548672"/><ellipse cx="247.313986" cy="245.946853" rx="2.549629" ry="2.548672"/><ellipse cx="274.085088" cy="245.946853" rx="2.549629" ry="2.548672"/><ellipse cx="300.856189" cy="245.946853" rx="2.549629" ry="2.548672"/><ellipse cx="327.627291" cy="245.946853" rx="2.549629" ry="2.548672"/><ellipse cx="355.673207" cy="245.946853" rx="2.549629" ry="2.548672"/><ellipse cx="382.444309" cy="245.946853" rx="2.549629" ry="2.548672"/><ellipse cx="410.490225" cy="245.946853" rx="2.549629" ry="2.548672"/><ellipse cx="435.986512" cy="245.946853" rx="2.549629" ry="2.548672"/><ellipse cx="464.032428" cy="245.946853" rx="2.549629" ry="2.548672"/><ellipse cx="490.803529" cy="245.946853" rx="2.549629" ry="2.548672"/><ellipse cx="518.849445" cy="245.946853" rx="2.549629" ry="2.548672"/><ellipse cx="16.572587" cy="273.982245" rx="2.549629" ry="2.548672"/><ellipse cx="43.343688" cy="273.982245" rx="2.549629" ry="2.548672"/><ellipse cx="70.11479" cy="273.982245" rx="2.549629" ry="2.548672"/><ellipse cx="98.160706" cy="273.982245" rx="2.549629" ry="2.548672"/><ellipse cx="124.931807" cy="273.982245" rx="2.549629" ry="2.548672"/><ellipse cx="151.702909" cy="273.982245" rx="2.549629" ry="2.548672"/><ellipse cx="178.474011" cy="273.982245" rx="2.549629" ry="2.548672"/><ellipse cx="206.519927" cy="273.982245" rx="2.549629" ry="2.548672"/><ellipse cx="233.291028" cy="273.982245" rx="2.549629" ry="2.548672"/><ellipse cx="261.336944" cy="273.982245" rx="2.549629" ry="2.548672"/><ellipse cx="286.833232" cy="273.982245" rx="2.549629" ry="2.548672"/><ellipse cx="314.879147" cy="273.982245" rx="2.549629" ry="2.548672"/><ellipse cx="341.650249" cy="273.982245" rx="2.549629" ry="2.548672"/><ellipse cx="369.696165" cy="273.982245" rx="2.549629" ry="2.548672"/><ellipse cx="396.467267" cy="273.982245" rx="2.549629" ry="2.548672"/><ellipse cx="423.238368" cy="273.982245" rx="2.549629" ry="2.548672"/><ellipse cx="450.00947" cy="273.982245" rx="2.549629" ry="2.548672"/><ellipse cx="476.780571" cy="273.982245" rx="2.549629" ry="2.548672"/><ellipse cx="504.826487" cy="273.982245" rx="2.549629" ry="2.548672"/><ellipse cx="531.597589" cy="273.982245" rx="2.549629" ry="2.548672"/><ellipse cx="2.549629" cy="300.743302" rx="2.549629" ry="2.548672"/><ellipse cx="29.32073" cy="300.743302" rx="2.549629" ry="2.548672"/><ellipse cx="57.366646" cy="300.743302" rx="2.549629" ry="2.548672"/><ellipse cx="84.137748" cy="300.743302" rx="2.549629" ry="2.548672"/><ellipse cx="112.183664" cy="300.743302" rx="2.549629" ry="2.548672"/><ellipse cx="137.679951" cy="300.743302" rx="2.549629" ry="2.548672"/><ellipse cx="165.725867" cy="300.743302" rx="2.549629" ry="2.548672"/><ellipse cx="192.496969" cy="300.743302" rx="2.549629" ry="2.548672"/><ellipse cx="219.26807" cy="300.743302" rx="2.549629" ry="2.548672"/><ellipse cx="247.313986" cy="300.743302" rx="2.549629" ry="2.548672"/><ellipse cx="274.085088" cy="300.743302" rx="2.549629" ry="2.548672"/><ellipse cx="300.856189" cy="300.743302" rx="2.549629" ry="2.548672"/><ellipse cx="327.627291" cy="300.743302" rx="2.549629" ry="2.548672"/><ellipse cx="355.673207" cy="300.743302" rx="2.549629" ry="2.548672"/><ellipse cx="382.444309" cy="300.743302" rx="2.549629" ry="2.548672"/><ellipse cx="410.490225" cy="300.743302" rx="2.549629" ry="2.548672"/><ellipse cx="435.986512" cy="300.743302" rx="2.549629" ry="2.548672"/><ellipse cx="464.032428" cy="300.743302" rx="2.549629" ry="2.548672"/><ellipse cx="490.803529" cy="300.743302" rx="2.549629" ry="2.548672"/><ellipse cx="518.849445" cy="300.743302" rx="2.549629" ry="2.548672"/><ellipse cx="16.572587" cy="327.504358" rx="2.549629" ry="2.548672"/><ellipse cx="43.343688" cy="327.504358" rx="2.549629" ry="2.548672"/><ellipse cx="70.11479" cy="327.504358" rx="2.549629" ry="2.548672"/><ellipse cx="98.160706" cy="327.504358" rx="2.549629" ry="2.548672"/><ellipse cx="124.931807" cy="327.504358" rx="2.549629" ry="2.548672"/><ellipse cx="151.702909" cy="327.504358" rx="2.549629" ry="2.548672"/><ellipse cx="178.474011" cy="327.504358" rx="2.549629" ry="2.548672"/><ellipse cx="206.519927" cy="327.504358" rx="2.549629" ry="2.548672"/><ellipse cx="233.291028" cy="327.504358" rx="2.549629" ry="2.548672"/><ellipse cx="261.336944" cy="327.504358" rx="2.549629" ry="2.548672"/><ellipse cx="286.833232" cy="327.504358" rx="2.549629" ry="2.548672"/><ellipse cx="314.879147" cy="327.504358" rx="2.549629" ry="2.548672"/><ellipse cx="341.650249" cy="327.504358" rx="2.549629" ry="2.548672"/><ellipse cx="369.696165" cy="327.504358" rx="2.549629" ry="2.548672"/><ellipse cx="396.467267" cy="327.504358" rx="2.549629" ry="2.548672"/><ellipse cx="423.238368" cy="327.504358" rx="2.549629" ry="2.548672"/><ellipse cx="450.00947" cy="327.504358" rx="2.549629" ry="2.548672"/><ellipse cx="476.780571" cy="327.504358" rx="2.549629" ry="2.548672"/><ellipse cx="504.826487" cy="327.504358" rx="2.549629" ry="2.548672"/><ellipse cx="531.597589" cy="327.504358" rx="2.549629" ry="2.548672"/><ellipse cx="2.549629" cy="354.265415" rx="2.549629" ry="2.548672"/><ellipse cx="29.32073" cy="354.265415" rx="2.549629" ry="2.548672"/><ellipse cx="57.366646" cy="354.265415" rx="2.549629" ry="2.548672"/><ellipse cx="84.137748" cy="354.265415" rx="2.549629" ry="2.548672"/><ellipse cx="112.183664" cy="354.265415" rx="2.549629" ry="2.548672"/><ellipse cx="137.679951" cy="354.265415" rx="2.549629" ry="2.548672"/><ellipse cx="165.725867" cy="354.265415" rx="2.549629" ry="2.548672"/><ellipse cx="192.496969" cy="354.265415" rx="2.549629" ry="2.548672"/><ellipse cx="219.26807" cy="354.265415" rx="2.549629" ry="2.548672"/><ellipse cx="247.313986" cy="354.265415" rx="2.549629" ry="2.548672"/><ellipse cx="274.085088" cy="354.265415" rx="2.549629" ry="2.548672"/><ellipse cx="300.856189" cy="354.265415" rx="2.549629" ry="2.548672"/><ellipse cx="327.627291" cy="354.265415" rx="2.549629" ry="2.548672"/><ellipse cx="355.673207" cy="354.265415" rx="2.549629" ry="2.548672"/><ellipse cx="382.444309" cy="354.265415" rx="2.549629" ry="2.548672"/><ellipse cx="410.490225" cy="354.265415" rx="2.549629" ry="2.548672"/><ellipse cx="435.986512" cy="354.265415" rx="2.549629" ry="2.548672"/><ellipse cx="464.032428" cy="354.265415" rx="2.549629" ry="2.548672"/><ellipse cx="490.803529" cy="354.265415" rx="2.549629" ry="2.548672"/><ellipse cx="518.849445" cy="354.265415" rx="2.549629" ry="2.548672"/><ellipse cx="16.572587" cy="382.300807" rx="2.549629" ry="2.548672"/><ellipse cx="43.343688" cy="382.300807" rx="2.549629" ry="2.548672"/><ellipse cx="70.11479" cy="382.300807" rx="2.549629" ry="2.548672"/><ellipse cx="98.160706" cy="382.300807" rx="2.549629" ry="2.548672"/><ellipse cx="124.931807" cy="382.300807" rx="2.549629" ry="2.548672"/><ellipse cx="151.702909" cy="382.300807" rx="2.549629" ry="2.548672"/><ellipse cx="178.474011" cy="382.300807" rx="2.549629" ry="2.548672"/><ellipse cx="206.519927" cy="382.300807" rx="2.549629" ry="2.548672"/><ellipse cx="233.291028" cy="382.300807" rx="2.549629" ry="2.548672"/><ellipse cx="261.336944" cy="382.300807" rx="2.549629" ry="2.548672"/><ellipse cx="286.833232" cy="382.300807" rx="2.549629" ry="2.548672"/><ellipse cx="314.879147" cy="382.300807" rx="2.549629" ry="2.548672"/><ellipse cx="341.650249" cy="382.300807" rx="2.549629" ry="2.548672"/><ellipse cx="369.696165" cy="382.300807" rx="2.549629" ry="2.548672"/><ellipse cx="396.467267" cy="382.300807" rx="2.549629" ry="2.548672"/><ellipse cx="423.238368" cy="382.300807" rx="2.549629" ry="2.548672"/><ellipse cx="450.00947" cy="382.300807" rx="2.549629" ry="2.548672"/><ellipse cx="476.780571" cy="382.300807" rx="2.549629" ry="2.548672"/><ellipse cx="504.826487" cy="382.300807" rx="2.549629" ry="2.548672"/><ellipse cx="531.597589" cy="382.300807" rx="2.549629" ry="2.548672"/><ellipse cx="2.549629" cy="409.061864" rx="2.549629" ry="2.548672"/><ellipse cx="29.32073" cy="409.061864" rx="2.549629" ry="2.548672"/><ellipse cx="57.366646" cy="409.061864" rx="2.549629" ry="2.548672"/><ellipse cx="84.137748" cy="409.061864" rx="2.549629" ry="2.548672"/><ellipse cx="112.183664" cy="409.061864" rx="2.549629" ry="2.548672"/><ellipse cx="137.679951" cy="409.061864" rx="2.549629" ry="2.548672"/><ellipse cx="165.725867" cy="409.061864" rx="2.549629" ry="2.548672"/><ellipse cx="192.496969" cy="409.061864" rx="2.549629" ry="2.548672"/><ellipse cx="219.26807" cy="409.061864" rx="2.549629" ry="2.548672"/><ellipse cx="247.313986" cy="409.061864" rx="2.549629" ry="2.548672"/><ellipse cx="274.085088" cy="409.061864" rx="2.549629" ry="2.548672"/><ellipse cx="300.856189" cy="409.061864" rx="2.549629" ry="2.548672"/><ellipse cx="327.627291" cy="409.061864" rx="2.549629" ry="2.548672"/><ellipse cx="355.673207" cy="409.061864" rx="2.549629" ry="2.548672"/><ellipse cx="382.444309" cy="409.061864" rx="2.549629" ry="2.548672"/><ellipse cx="410.490225" cy="409.061864" rx="2.549629" ry="2.548672"/><ellipse cx="435.986512" cy="409.061864" rx="2.549629" ry="2.548672"/><ellipse cx="464.032428" cy="409.061864" rx="2.549629" ry="2.548672"/><ellipse cx="490.803529" cy="409.061864" rx="2.549629" ry="2.548672"/><ellipse cx="518.849445" cy="409.061864" rx="2.549629" ry="2.548672"/><ellipse cx="16.572587" cy="435.82292" rx="2.549629" ry="2.548672"/><ellipse cx="43.343688" cy="435.82292" rx="2.549629" ry="2.548672"/><ellipse cx="70.11479" cy="435.82292" rx="2.549629" ry="2.548672"/><ellipse cx="98.160706" cy="435.82292" rx="2.549629" ry="2.548672"/><ellipse cx="124.931807" cy="435.82292" rx="2.549629" ry="2.548672"/><ellipse cx="151.702909" cy="435.82292" rx="2.549629" ry="2.548672"/><ellipse cx="178.474011" cy="435.82292" rx="2.549629" ry="2.548672"/><ellipse cx="206.519927" cy="435.82292" rx="2.549629" ry="2.548672"/><ellipse cx="233.291028" cy="435.82292" rx="2.549629" ry="2.548672"/><ellipse cx="261.336944" cy="435.82292" rx="2.549629" ry="2.548672"/><ellipse cx="286.833232" cy="435.82292" rx="2.549629" ry="2.548672"/><ellipse cx="314.879147" cy="435.82292" rx="2.549629" ry="2.548672"/><ellipse cx="341.650249" cy="435.82292" rx="2.549629" ry="2.548672"/><ellipse cx="369.696165" cy="435.82292" rx="2.549629" ry="2.548672"/><ellipse cx="396.467267" cy="435.82292" rx="2.549629" ry="2.548672"/><ellipse cx="423.238368" cy="435.82292" rx="2.549629" ry="2.548672"/><ellipse cx="450.00947" cy="435.82292" rx="2.549629" ry="2.548672"/><ellipse cx="476.780571" cy="435.82292" rx="2.549629" ry="2.548672"/><ellipse cx="504.826487" cy="435.82292" rx="2.549629" ry="2.548672"/><ellipse cx="531.597589" cy="435.82292" rx="2.549629" ry="2.548672"/><ellipse cx="2.549629" cy="463.858313" rx="2.549629" ry="2.548672"/><ellipse cx="29.32073" cy="463.858313" rx="2.549629" ry="2.548672"/><ellipse cx="57.366646" cy="463.858313" rx="2.549629" ry="2.548672"/><ellipse cx="84.137748" cy="463.858313" rx="2.549629" ry="2.548672"/><ellipse cx="112.183664" cy="463.858313" rx="2.549629" ry="2.548672"/><ellipse cx="137.679951" cy="463.858313" rx="2.549629" ry="2.548672"/><ellipse cx="165.725867" cy="463.858313" rx="2.549629" ry="2.548672"/><ellipse cx="192.496969" cy="463.858313" rx="2.549629" ry="2.548672"/><ellipse cx="219.26807" cy="463.858313" rx="2.549629" ry="2.548672"/><ellipse cx="247.313986" cy="463.858313" rx="2.549629" ry="2.548672"/><ellipse cx="274.085088" cy="463.858313" rx="2.549629" ry="2.548672"/><ellipse cx="300.856189" cy="463.858313" rx="2.549629" ry="2.548672"/><ellipse cx="327.627291" cy="463.858313" rx="2.549629" ry="2.548672"/><ellipse cx="355.673207" cy="463.858313" rx="2.549629" ry="2.548672"/><ellipse cx="382.444309" cy="463.858313" rx="2.549629" ry="2.548672"/><ellipse cx="410.490225" cy="463.858313" rx="2.549629" ry="2.548672"/><ellipse cx="435.986512" cy="463.858313" rx="2.549629" ry="2.548672"/><ellipse cx="464.032428" cy="463.858313" rx="2.549629" ry="2.548672"/><ellipse cx="490.803529" cy="463.858313" rx="2.549629" ry="2.548672"/><ellipse cx="518.849445" cy="463.858313" rx="2.549629" ry="2.548672"/><ellipse cx="16.572587" cy="490.619369" rx="2.549629" ry="2.548672"/><ellipse cx="43.343688" cy="490.619369" rx="2.549629" ry="2.548672"/><ellipse cx="70.11479" cy="490.619369" rx="2.549629" ry="2.548672"/><ellipse cx="98.160706" cy="490.619369" rx="2.549629" ry="2.548672"/><ellipse cx="124.931807" cy="490.619369" rx="2.549629" ry="2.548672"/><ellipse cx="151.702909" cy="490.619369" rx="2.549629" ry="2.548672"/><ellipse cx="178.474011" cy="490.619369" rx="2.549629" ry="2.548672"/><ellipse cx="206.519927" cy="490.619369" rx="2.549629" ry="2.548672"/><ellipse cx="233.291028" cy="490.619369" rx="2.549629" ry="2.548672"/><ellipse cx="261.336944" cy="490.619369" rx="2.549629" ry="2.548672"/><ellipse cx="286.833232" cy="490.619369" rx="2.549629" ry="2.548672"/><ellipse cx="314.879147" cy="490.619369" rx="2.549629" ry="2.548672"/><ellipse cx="341.650249" cy="490.619369" rx="2.549629" ry="2.548672"/><ellipse cx="369.696165" cy="490.619369" rx="2.549629" ry="2.548672"/><ellipse cx="396.467267" cy="490.619369" rx="2.549629" ry="2.548672"/><ellipse cx="423.238368" cy="490.619369" rx="2.549629" ry="2.548672"/><ellipse cx="450.00947" cy="490.619369" rx="2.549629" ry="2.548672"/><ellipse cx="476.780571" cy="490.619369" rx="2.549629" ry="2.548672"/><ellipse cx="504.826487" cy="490.619369" rx="2.549629" ry="2.548672"/><ellipse cx="531.597589" cy="490.619369" rx="2.549629" ry="2.548672"/><ellipse cx="2.549629" cy="517.380426" rx="2.549629" ry="2.548672"/><ellipse cx="29.32073" cy="517.380426" rx="2.549629" ry="2.548672"/><ellipse cx="57.366646" cy="517.380426" rx="2.549629" ry="2.548672"/><ellipse cx="84.137748" cy="517.380426" rx="2.549629" ry="2.548672"/><ellipse cx="112.183664" cy="517.380426" rx="2.549629" ry="2.548672"/><ellipse cx="137.679951" cy="517.380426" rx="2.549629" ry="2.548672"/><ellipse cx="165.725867" cy="517.380426" rx="2.549629" ry="2.548672"/><ellipse cx="192.496969" cy="517.380426" rx="2.549629" ry="2.548672"/><ellipse cx="219.26807" cy="517.380426" rx="2.549629" ry="2.548672"/><ellipse cx="247.313986" cy="517.380426" rx="2.549629" ry="2.548672"/><ellipse cx="274.085088" cy="517.380426" rx="2.549629" ry="2.548672"/><ellipse cx="300.856189" cy="517.380426" rx="2.549629" ry="2.548672"/><ellipse cx="327.627291" cy="517.380426" rx="2.549629" ry="2.548672"/><ellipse cx="355.673207" cy="517.380426" rx="2.549629" ry="2.548672"/><ellipse cx="382.444309" cy="517.380426" rx="2.549629" ry="2.548672"/><ellipse cx="410.490225" cy="517.380426" rx="2.549629" ry="2.548672"/><ellipse cx="435.986512" cy="517.380426" rx="2.549629" ry="2.548672"/><ellipse cx="464.032428" cy="517.380426" rx="2.549629" ry="2.548672"/><ellipse cx="490.803529" cy="517.380426" rx="2.549629" ry="2.548672"/><ellipse cx="518.849445" cy="517.380426" rx="2.549629" ry="2.548672"/><ellipse cx="16.572587" cy="544.141482" rx="2.549629" ry="2.548672"/><ellipse cx="43.343688" cy="544.141482" rx="2.549629" ry="2.548672"/><ellipse cx="70.11479" cy="544.141482" rx="2.549629" ry="2.548672"/><ellipse cx="98.160706" cy="544.141482" rx="2.549629" ry="2.548672"/><ellipse cx="124.931807" cy="544.141482" rx="2.549629" ry="2.548672"/><ellipse cx="151.702909" cy="544.141482" rx="2.549629" ry="2.548672"/><ellipse cx="178.474011" cy="544.141482" rx="2.549629" ry="2.548672"/><ellipse cx="206.519927" cy="544.141482" rx="2.549629" ry="2.548672"/><ellipse cx="233.291028" cy="544.141482" rx="2.549629" ry="2.548672"/><ellipse cx="261.336944" cy="544.141482" rx="2.549629" ry="2.548672"/><ellipse cx="286.833232" cy="544.141482" rx="2.549629" ry="2.548672"/><ellipse cx="314.879147" cy="544.141482" rx="2.549629" ry="2.548672"/><ellipse cx="341.650249" cy="544.141482" rx="2.549629" ry="2.548672"/><ellipse cx="369.696165" cy="544.141482" rx="2.549629" ry="2.548672"/><ellipse cx="396.467267" cy="544.141482" rx="2.549629" ry="2.548672"/><ellipse cx="423.238368" cy="544.141482" rx="2.549629" ry="2.548672"/><ellipse cx="450.00947" cy="544.141482" rx="2.549629" ry="2.548672"/><ellipse cx="476.780571" cy="544.141482" rx="2.549629" ry="2.548672"/><ellipse cx="504.826487" cy="544.141482" rx="2.549629" ry="2.548672"/><ellipse cx="531.597589" cy="544.141482" rx="2.549629" ry="2.548672"/></g></svg>