<svg id="Warstwa_1" data-name="Warstwa 1" xmlns="http://www.w3.org/2000/svg" xmlns:xlink="http://www.w3.org/1999/xlink" viewBox="0 0 288 288"><defs><style>.cls-1{fill:#fff;}.cls-2{clip-path:url(#clip-path);}.cls-3{fill:#feb64d;}</style><clipPath id="clip-path"><rect class="cls-1" width="288" height="288"/></clipPath></defs><title>dots</title><rect class="cls-1" width="288" height="288"/><g class="cls-2"><circle class="cls-3" cx="11.61" cy="-0.01" r="1.28"/><circle class="cls-3" cx="26.01" cy="-0.01" r="1.28"/><circle class="cls-3" cx="40.41" cy="-0.01" r="1.28"/><circle class="cls-3" cx="54.81" cy="-0.01" r="1.28"/><circle class="cls-3" cx="69.21" cy="-0.01" r="1.28"/><circle class="cls-3" cx="83.61" cy="-0.01" r="1.28"/><circle class="cls-3" cx="98.01" cy="-0.01" r="1.28"/><circle class="cls-3" cx="112.41" cy="-0.01" r="1.28"/><circle class="cls-3" cx="126.81" cy="-0.01" r="1.28"/><circle class="cls-3" cx="141.21" cy="-0.01" r="1.28"/><circle class="cls-3" cx="155.61" cy="-0.01" r="1.28"/><circle class="cls-3" cx="170.01" cy="-0.01" r="1.28"/><circle class="cls-3" cx="184.41" cy="-0.01" r="1.28"/><circle class="cls-3" cx="198.81" cy="-0.01" r="1.28"/><circle class="cls-3" cx="213.21" cy="-0.01" r="1.28"/><circle class="cls-3" cx="227.61" cy="-0.01" r="1.28"/><circle class="cls-3" cx="242.01" cy="-0.01" r="1.28"/><circle class="cls-3" cx="256.41" cy="-0.01" r="1.28"/><circle class="cls-3" cx="270.81" cy="-0.01" r="1.28"/><circle class="cls-3" cx="285.21" cy="-0.01" r="1.28"/><circle class="cls-3" cx="4.41" cy="14.39" r="1.28"/><circle class="cls-3" cx="18.81" cy="14.39" r="1.28"/><circle class="cls-3" cx="33.21" cy="14.39" r="1.28"/><circle class="cls-3" cx="47.61" cy="14.39" r="1.28"/><circle class="cls-3" cx="62.01" cy="14.39" r="1.28"/><circle class="cls-3" cx="76.41" cy="14.39" r="1.28"/><circle class="cls-3" cx="90.81" cy="14.39" r="1.28"/><circle class="cls-3" cx="105.21" cy="14.39" r="1.28"/><circle class="cls-3" cx="119.61" cy="14.39" r="1.28"/><circle class="cls-3" cx="134.01" cy="14.39" r="1.28"/><circle class="cls-3" cx="148.41" cy="14.39" r="1.28"/><circle class="cls-3" cx="162.81" cy="14.39" r="1.28"/><circle class="cls-3" cx="177.21" cy="14.39" r="1.28"/><circle class="cls-3" cx="191.61" cy="14.39" r="1.28"/><circle class="cls-3" cx="206.01" cy="14.39" r="1.28"/><circle class="cls-3" cx="220.41" cy="14.39" r="1.28"/><circle class="cls-3" cx="234.81" cy="14.39" r="1.28"/><circle class="cls-3" cx="249.21" cy="14.39" r="1.28"/><circle class="cls-3" cx="263.61" cy="14.39" r="1.28"/><circle class="cls-3" cx="278.01" cy="14.39" r="1.28"/><circle class="cls-3" cx="11.61" cy="28.79" r="1.28"/><circle class="cls-3" cx="26.01" cy="28.79" r="1.28"/><circle class="cls-3" cx="40.41" cy="28.79" r="1.28"/><circle class="cls-3" cx="54.81" cy="28.79" r="1.28"/><circle class="cls-3" cx="69.21" cy="28.79" r="1.28"/><circle class="cls-3" cx="83.61" cy="28.79" r="1.28"/><circle class="cls-3" cx="98.01" cy="28.79" r="1.28"/><circle class="cls-3" cx="112.41" cy="28.79" r="1.28"/><circle class="cls-3" cx="126.81" cy="28.79" r="1.28"/><circle class="cls-3" cx="141.21" cy="28.79" r="1.28"/><circle class="cls-3" cx="155.61" cy="28.79" r="1.28"/><circle class="cls-3" cx="170.01" cy="28.79" r="1.28"/><circle class="cls-3" cx="184.41" cy="28.79" r="1.28"/><circle class="cls-3" cx="198.81" cy="28.79" r="1.28"/><circle class="cls-3" cx="213.21" cy="28.79" r="1.28"/><circle class="cls-3" cx="227.61" cy="28.79" r="1.28"/><circle class="cls-3" cx="242.01" cy="28.79" r="1.28"/><circle class="cls-3" cx="256.41" cy="28.79" r="1.28"/><circle class="cls-3" cx="270.81" cy="28.79" r="1.28"/><circle class="cls-3" cx="285.21" cy="28.79" r="1.28"/><circle class="cls-3" cx="4.41" cy="43.19" r="1.28"/><circle class="cls-3" cx="18.81" cy="43.19" r="1.28"/><circle class="cls-3" cx="33.21" cy="43.19" r="1.28"/><circle class="cls-3" cx="47.61" cy="43.19" r="1.28"/><circle class="cls-3" cx="62.01" cy="43.19" r="1.28"/><circle class="cls-3" cx="76.41" cy="43.19" r="1.28"/><circle class="cls-3" cx="90.81" cy="43.19" r="1.28"/><circle class="cls-3" cx="105.21" cy="43.19" r="1.28"/><circle class="cls-3" cx="119.61" cy="43.19" r="1.28"/><circle class="cls-3" cx="134.01" cy="43.19" r="1.28"/><circle class="cls-3" cx="148.41" cy="43.19" r="1.28"/><circle class="cls-3" cx="162.81" cy="43.19" r="1.28"/><circle class="cls-3" cx="177.21" cy="43.19" r="1.28"/><circle class="cls-3" cx="191.61" cy="43.19" r="1.28"/><circle class="cls-3" cx="206.01" cy="43.19" r="1.28"/><circle class="cls-3" cx="220.41" cy="43.19" r="1.28"/><circle class="cls-3" cx="234.81" cy="43.19" r="1.28"/><circle class="cls-3" cx="249.21" cy="43.19" r="1.28"/><circle class="cls-3" cx="263.61" cy="43.19" r="1.28"/><circle class="cls-3" cx="278.01" cy="43.19" r="1.28"/><circle class="cls-3" cx="11.61" cy="57.59" r="1.28"/><circle class="cls-3" cx="26.01" cy="57.59" r="1.28"/><circle class="cls-3" cx="40.41" cy="57.59" r="1.28"/><circle class="cls-3" cx="54.81" cy="57.59" r="1.28"/><circle class="cls-3" cx="69.21" cy="57.59" r="1.28"/><circle class="cls-3" cx="83.61" cy="57.59" r="1.28"/><circle class="cls-3" cx="98.01" cy="57.59" r="1.28"/><circle class="cls-3" cx="112.41" cy="57.59" r="1.28"/><circle class="cls-3" cx="126.81" cy="57.59" r="1.28"/><circle class="cls-3" cx="141.21" cy="57.59" r="1.28"/><circle class="cls-3" cx="155.61" cy="57.59" r="1.28"/><circle class="cls-3" cx="170.01" cy="57.59" r="1.28"/><circle class="cls-3" cx="184.41" cy="57.59" r="1.28"/><circle class="cls-3" cx="198.81" cy="57.59" r="1.28"/><circle class="cls-3" cx="213.21" cy="57.59" r="1.28"/><circle class="cls-3" cx="227.61" cy="57.59" r="1.28"/><circle class="cls-3" cx="242.01" cy="57.59" r="1.28"/><circle class="cls-3" cx="256.41" cy="57.59" r="1.28"/><circle class="cls-3" cx="270.81" cy="57.59" r="1.28"/><circle class="cls-3" cx="285.21" cy="57.59" r="1.28"/><circle class="cls-3" cx="4.41" cy="71.99" r="1.28"/><circle class="cls-3" cx="18.81" cy="71.99" r="1.28"/><circle class="cls-3" cx="33.21" cy="71.99" r="1.28"/><circle class="cls-3" cx="47.61" cy="71.99" r="1.28"/><circle class="cls-3" cx="62.01" cy="71.99" r="1.28"/><circle class="cls-3" cx="76.41" cy="71.99" r="1.28"/><circle class="cls-3" cx="90.81" cy="71.99" r="1.28"/><circle class="cls-3" cx="105.21" cy="71.99" r="1.28"/><circle class="cls-3" cx="119.61" cy="71.99" r="1.28"/><circle class="cls-3" cx="134.01" cy="71.99" r="1.28"/><circle class="cls-3" cx="148.41" cy="71.99" r="1.28"/><circle class="cls-3" cx="162.81" cy="71.99" r="1.28"/><circle class="cls-3" cx="177.21" cy="71.99" r="1.28"/><circle class="cls-3" cx="191.61" cy="71.99" r="1.28"/><circle class="cls-3" cx="206.01" cy="71.99" r="1.28"/><circle class="cls-3" cx="220.41" cy="71.99" r="1.28"/><circle class="cls-3" cx="234.81" cy="71.99" r="1.28"/><circle class="cls-3" cx="249.21" cy="71.99" r="1.28"/><circle class="cls-3" cx="263.61" cy="71.99" r="1.28"/><circle class="cls-3" cx="278.01" cy="71.99" r="1.28"/><circle class="cls-3" cx="11.61" cy="86.39" r="1.28"/><circle class="cls-3" cx="26.01" cy="86.39" r="1.28"/><circle class="cls-3" cx="40.41" cy="86.39" r="1.28"/><circle class="cls-3" cx="54.81" cy="86.39" r="1.28"/><circle class="cls-3" cx="69.21" cy="86.39" r="1.28"/><circle class="cls-3" cx="83.61" cy="86.39" r="1.28"/><circle class="cls-3" cx="98.01" cy="86.39" r="1.28"/><circle class="cls-3" cx="112.41" cy="86.39" r="1.28"/><circle class="cls-3" cx="126.81" cy="86.39" r="1.28"/><circle class="cls-3" cx="141.21" cy="86.39" r="1.28"/><circle class="cls-3" cx="155.61" cy="86.39" r="1.28"/><circle class="cls-3" cx="170.01" cy="86.39" r="1.28"/><circle class="cls-3" cx="184.41" cy="86.39" r="1.28"/><circle class="cls-3" cx="198.81" cy="86.39" r="1.28"/><circle class="cls-3" cx="213.21" cy="86.39" r="1.28"/><circle class="cls-3" cx="227.61" cy="86.39" r="1.28"/><circle class="cls-3" cx="242.01" cy="86.39" r="1.28"/><circle class="cls-3" cx="256.41" cy="86.39" r="1.28"/><circle class="cls-3" cx="270.81" cy="86.39" r="1.28"/><circle class="cls-3" cx="285.21" cy="86.39" r="1.28"/><circle class="cls-3" cx="4.41" cy="100.79" r="1.28"/><circle class="cls-3" cx="18.81" cy="100.79" r="1.28"/><circle class="cls-3" cx="33.21" cy="100.79" r="1.28"/><circle class="cls-3" cx="47.61" cy="100.79" r="1.28"/><circle class="cls-3" cx="62.01" cy="100.79" r="1.28"/><circle class="cls-3" cx="76.41" cy="100.79" r="1.28"/><circle class="cls-3" cx="90.81" cy="100.79" r="1.28"/><circle class="cls-3" cx="105.21" cy="100.79" r="1.28"/><circle class="cls-3" cx="119.61" cy="100.79" r="1.28"/><circle class="cls-3" cx="134.01" cy="100.79" r="1.28"/><circle class="cls-3" cx="148.41" cy="100.79" r="1.28"/><circle class="cls-3" cx="162.81" cy="100.79" r="1.28"/><circle class="cls-3" cx="177.21" cy="100.79" r="1.28"/><circle class="cls-3" cx="191.61" cy="100.79" r="1.28"/><circle class="cls-3" cx="206.01" cy="100.79" r="1.28"/><circle class="cls-3" cx="220.41" cy="100.79" r="1.28"/><circle class="cls-3" cx="234.81" cy="100.79" r="1.28"/><circle class="cls-3" cx="249.21" cy="100.79" r="1.28"/><circle class="cls-3" cx="263.61" cy="100.79" r="1.28"/><circle class="cls-3" cx="278.01" cy="100.79" r="1.28"/><circle class="cls-3" cx="11.61" cy="115.19" r="1.28"/><circle class="cls-3" cx="26.01" cy="115.19" r="1.28"/><circle class="cls-3" cx="40.41" cy="115.19" r="1.28"/><circle class="cls-3" cx="54.81" cy="115.19" r="1.28"/><circle class="cls-3" cx="69.21" cy="115.19" r="1.28"/><circle class="cls-3" cx="83.61" cy="115.19" r="1.28"/><circle class="cls-3" cx="98.01" cy="115.19" r="1.28"/><circle class="cls-3" cx="112.41" cy="115.19" r="1.28"/><circle class="cls-3" cx="126.81" cy="115.19" r="1.28"/><circle class="cls-3" cx="141.21" cy="115.19" r="1.28"/><circle class="cls-3" cx="155.61" cy="115.19" r="1.28"/><circle class="cls-3" cx="170.01" cy="115.19" r="1.28"/><circle class="cls-3" cx="184.41" cy="115.19" r="1.28"/><circle class="cls-3" cx="198.81" cy="115.19" r="1.28"/><circle class="cls-3" cx="213.21" cy="115.19" r="1.28"/><circle class="cls-3" cx="227.61" cy="115.19" r="1.28"/><circle class="cls-3" cx="242.01" cy="115.19" r="1.28"/><circle class="cls-3" cx="256.41" cy="115.19" r="1.28"/><circle class="cls-3" cx="270.81" cy="115.19" r="1.28"/><circle class="cls-3" cx="285.21" cy="115.19" r="1.28"/><circle class="cls-3" cx="4.41" cy="129.59" r="1.28"/><circle class="cls-3" cx="18.81" cy="129.59" r="1.28"/><circle class="cls-3" cx="33.21" cy="129.59" r="1.28"/><circle class="cls-3" cx="47.61" cy="129.59" r="1.28"/><circle class="cls-3" cx="62.01" cy="129.59" r="1.28"/><circle class="cls-3" cx="76.41" cy="129.59" r="1.28"/><circle class="cls-3" cx="90.81" cy="129.59" r="1.28"/><circle class="cls-3" cx="105.21" cy="129.59" r="1.28"/><circle class="cls-3" cx="119.61" cy="129.59" r="1.28"/><circle class="cls-3" cx="134.01" cy="129.59" r="1.28"/><circle class="cls-3" cx="148.41" cy="129.59" r="1.28"/><circle class="cls-3" cx="162.81" cy="129.59" r="1.28"/><circle class="cls-3" cx="177.21" cy="129.59" r="1.28"/><circle class="cls-3" cx="191.61" cy="129.59" r="1.28"/><circle class="cls-3" cx="206.01" cy="129.59" r="1.28"/><circle class="cls-3" cx="220.41" cy="129.59" r="1.28"/><circle class="cls-3" cx="234.81" cy="129.59" r="1.28"/><circle class="cls-3" cx="249.21" cy="129.59" r="1.28"/><circle class="cls-3" cx="263.61" cy="129.59" r="1.28"/><circle class="cls-3" cx="278.01" cy="129.59" r="1.28"/><circle class="cls-3" cx="11.61" cy="143.99" r="1.28"/><circle class="cls-3" cx="26.01" cy="143.99" r="1.28"/><circle class="cls-3" cx="40.41" cy="143.99" r="1.28"/><circle class="cls-3" cx="54.81" cy="143.99" r="1.28"/><circle class="cls-3" cx="69.21" cy="143.99" r="1.28"/><circle class="cls-3" cx="83.61" cy="143.99" r="1.28"/><circle class="cls-3" cx="98.01" cy="143.99" r="1.28"/><circle class="cls-3" cx="112.41" cy="143.99" r="1.28"/><circle class="cls-3" cx="126.81" cy="143.99" r="1.28"/><circle class="cls-3" cx="141.21" cy="143.99" r="1.28"/><circle class="cls-3" cx="155.61" cy="143.99" r="1.28"/><circle class="cls-3" cx="170.01" cy="143.99" r="1.28"/><circle class="cls-3" cx="184.41" cy="143.99" r="1.28"/><circle class="cls-3" cx="198.81" cy="143.99" r="1.28"/><circle class="cls-3" cx="213.21" cy="143.99" r="1.28"/><circle class="cls-3" cx="227.61" cy="143.99" r="1.28"/><circle class="cls-3" cx="242.01" cy="143.99" r="1.28"/><circle class="cls-3" cx="256.41" cy="143.99" r="1.28"/><circle class="cls-3" cx="270.81" cy="143.99" r="1.28"/><circle class="cls-3" cx="285.21" cy="143.99" r="1.28"/><circle class="cls-3" cx="4.41" cy="158.39" r="1.28"/><circle class="cls-3" cx="18.81" cy="158.39" r="1.28"/><circle class="cls-3" cx="33.21" cy="158.39" r="1.28"/><circle class="cls-3" cx="47.61" cy="158.39" r="1.28"/><circle class="cls-3" cx="62.01" cy="158.39" r="1.28"/><circle class="cls-3" cx="76.41" cy="158.39" r="1.28"/><circle class="cls-3" cx="90.81" cy="158.39" r="1.28"/><circle class="cls-3" cx="105.21" cy="158.39" r="1.28"/><circle class="cls-3" cx="119.61" cy="158.39" r="1.28"/><circle class="cls-3" cx="134.01" cy="158.39" r="1.28"/><circle class="cls-3" cx="148.41" cy="158.39" r="1.28"/><circle class="cls-3" cx="162.81" cy="158.39" r="1.28"/><circle class="cls-3" cx="177.21" cy="158.39" r="1.28"/><circle class="cls-3" cx="191.61" cy="158.39" r="1.28"/><circle class="cls-3" cx="206.01" cy="158.39" r="1.28"/><circle class="cls-3" cx="220.41" cy="158.39" r="1.28"/><circle class="cls-3" cx="234.81" cy="158.39" r="1.28"/><circle class="cls-3" cx="249.21" cy="158.39" r="1.28"/><circle class="cls-3" cx="263.61" cy="158.39" r="1.28"/><circle class="cls-3" cx="278.01" cy="158.39" r="1.28"/><circle class="cls-3" cx="11.61" cy="172.79" r="1.28"/><circle class="cls-3" cx="26.01" cy="172.79" r="1.28"/><circle class="cls-3" cx="40.41" cy="172.79" r="1.28"/><circle class="cls-3" cx="54.81" cy="172.79" r="1.28"/><circle class="cls-3" cx="69.21" cy="172.79" r="1.28"/><circle class="cls-3" cx="83.61" cy="172.79" r="1.28"/><circle class="cls-3" cx="98.01" cy="172.79" r="1.28"/><circle class="cls-3" cx="112.41" cy="172.79" r="1.28"/><circle class="cls-3" cx="126.81" cy="172.79" r="1.28"/><circle class="cls-3" cx="141.21" cy="172.79" r="1.28"/><circle class="cls-3" cx="155.61" cy="172.79" r="1.28"/><circle class="cls-3" cx="170.01" cy="172.79" r="1.28"/><circle class="cls-3" cx="184.41" cy="172.79" r="1.28"/><circle class="cls-3" cx="198.81" cy="172.79" r="1.28"/><circle class="cls-3" cx="213.21" cy="172.79" r="1.28"/><circle class="cls-3" cx="227.61" cy="172.79" r="1.28"/><circle class="cls-3" cx="242.01" cy="172.79" r="1.28"/><circle class="cls-3" cx="256.41" cy="172.79" r="1.28"/><circle class="cls-3" cx="270.81" cy="172.79" r="1.28"/><circle class="cls-3" cx="285.21" cy="172.79" r="1.28"/><circle class="cls-3" cx="4.41" cy="187.19" r="1.28"/><circle class="cls-3" cx="18.81" cy="187.19" r="1.28"/><circle class="cls-3" cx="33.21" cy="187.19" r="1.28"/><circle class="cls-3" cx="47.61" cy="187.19" r="1.28"/><circle class="cls-3" cx="62.01" cy="187.19" r="1.28"/><circle class="cls-3" cx="76.41" cy="187.19" r="1.28"/><circle class="cls-3" cx="90.81" cy="187.19" r="1.28"/><circle class="cls-3" cx="105.21" cy="187.19" r="1.28"/><circle class="cls-3" cx="119.61" cy="187.19" r="1.28"/><circle class="cls-3" cx="134.01" cy="187.19" r="1.28"/><circle class="cls-3" cx="148.41" cy="187.19" r="1.28"/><circle class="cls-3" cx="162.81" cy="187.19" r="1.28"/><circle class="cls-3" cx="177.21" cy="187.19" r="1.28"/><circle class="cls-3" cx="191.61" cy="187.19" r="1.28"/><circle class="cls-3" cx="206.01" cy="187.19" r="1.28"/><circle class="cls-3" cx="220.41" cy="187.19" r="1.28"/><circle class="cls-3" cx="234.81" cy="187.19" r="1.28"/><circle class="cls-3" cx="249.21" cy="187.19" r="1.28"/><circle class="cls-3" cx="263.61" cy="187.19" r="1.28"/><circle class="cls-3" cx="278.01" cy="187.19" r="1.28"/><circle class="cls-3" cx="11.61" cy="201.59" r="1.28"/><circle class="cls-3" cx="26.01" cy="201.59" r="1.28"/><circle class="cls-3" cx="40.41" cy="201.59" r="1.28"/><circle class="cls-3" cx="54.81" cy="201.59" r="1.28"/><circle class="cls-3" cx="69.21" cy="201.59" r="1.28"/><circle class="cls-3" cx="83.61" cy="201.59" r="1.28"/><circle class="cls-3" cx="98.01" cy="201.59" r="1.28"/><circle class="cls-3" cx="112.41" cy="201.59" r="1.28"/><circle class="cls-3" cx="126.81" cy="201.59" r="1.28"/><circle class="cls-3" cx="141.21" cy="201.59" r="1.28"/><circle class="cls-3" cx="155.61" cy="201.59" r="1.28"/><circle class="cls-3" cx="170.01" cy="201.59" r="1.28"/><circle class="cls-3" cx="184.41" cy="201.59" r="1.28"/><circle class="cls-3" cx="198.81" cy="201.59" r="1.28"/><circle class="cls-3" cx="213.21" cy="201.59" r="1.28"/><circle class="cls-3" cx="227.61" cy="201.59" r="1.28"/><circle class="cls-3" cx="242.01" cy="201.59" r="1.28"/><circle class="cls-3" cx="256.41" cy="201.59" r="1.28"/><circle class="cls-3" cx="270.81" cy="201.59" r="1.28"/><circle class="cls-3" cx="285.21" cy="201.59" r="1.28"/><circle class="cls-3" cx="4.41" cy="215.99" r="1.28"/><circle class="cls-3" cx="18.81" cy="215.99" r="1.28"/><circle class="cls-3" cx="33.21" cy="215.99" r="1.28"/><circle class="cls-3" cx="47.61" cy="215.99" r="1.28"/><circle class="cls-3" cx="62.01" cy="215.99" r="1.28"/><circle class="cls-3" cx="76.41" cy="215.99" r="1.28"/><circle class="cls-3" cx="90.81" cy="215.99" r="1.28"/><circle class="cls-3" cx="105.21" cy="215.99" r="1.28"/><circle class="cls-3" cx="119.61" cy="215.99" r="1.28"/><circle class="cls-3" cx="134.01" cy="215.99" r="1.28"/><circle class="cls-3" cx="148.41" cy="215.99" r="1.28"/><circle class="cls-3" cx="162.81" cy="215.99" r="1.28"/><circle class="cls-3" cx="177.21" cy="215.99" r="1.28"/><circle class="cls-3" cx="191.61" cy="215.99" r="1.28"/><circle class="cls-3" cx="206.01" cy="215.99" r="1.28"/><circle class="cls-3" cx="220.41" cy="215.99" r="1.28"/><circle class="cls-3" cx="234.81" cy="215.99" r="1.28"/><circle class="cls-3" cx="249.21" cy="215.99" r="1.28"/><circle class="cls-3" cx="263.61" cy="215.99" r="1.28"/><circle class="cls-3" cx="278.01" cy="215.99" r="1.28"/><circle class="cls-3" cx="11.61" cy="230.39" r="1.28"/><circle class="cls-3" cx="26.01" cy="230.39" r="1.28"/><circle class="cls-3" cx="40.41" cy="230.39" r="1.28"/><circle class="cls-3" cx="54.81" cy="230.39" r="1.28"/><circle class="cls-3" cx="69.21" cy="230.39" r="1.28"/><circle class="cls-3" cx="83.61" cy="230.39" r="1.28"/><circle class="cls-3" cx="98.01" cy="230.39" r="1.28"/><circle class="cls-3" cx="112.41" cy="230.39" r="1.28"/><circle class="cls-3" cx="126.81" cy="230.39" r="1.28"/><circle class="cls-3" cx="141.21" cy="230.39" r="1.28"/><circle class="cls-3" cx="155.61" cy="230.39" r="1.28"/><circle class="cls-3" cx="170.01" cy="230.39" r="1.28"/><circle class="cls-3" cx="184.41" cy="230.39" r="1.28"/><circle class="cls-3" cx="198.81" cy="230.39" r="1.28"/><circle class="cls-3" cx="213.21" cy="230.39" r="1.28"/><circle class="cls-3" cx="227.61" cy="230.39" r="1.28"/><circle class="cls-3" cx="242.01" cy="230.39" r="1.28"/><circle class="cls-3" cx="256.41" cy="230.39" r="1.28"/><circle class="cls-3" cx="270.81" cy="230.39" r="1.28"/><circle class="cls-3" cx="285.21" cy="230.39" r="1.28"/><circle class="cls-3" cx="4.41" cy="244.79" r="1.28"/><circle class="cls-3" cx="18.81" cy="244.79" r="1.28"/><circle class="cls-3" cx="33.21" cy="244.79" r="1.28"/><circle class="cls-3" cx="47.61" cy="244.79" r="1.28"/><circle class="cls-3" cx="62.01" cy="244.79" r="1.28"/><circle class="cls-3" cx="76.41" cy="244.79" r="1.28"/><circle class="cls-3" cx="90.81" cy="244.79" r="1.28"/><circle class="cls-3" cx="105.21" cy="244.79" r="1.28"/><circle class="cls-3" cx="119.61" cy="244.79" r="1.28"/><circle class="cls-3" cx="134.01" cy="244.79" r="1.28"/><circle class="cls-3" cx="148.41" cy="244.79" r="1.28"/><circle class="cls-3" cx="162.81" cy="244.79" r="1.28"/><circle class="cls-3" cx="177.21" cy="244.79" r="1.28"/><circle class="cls-3" cx="191.61" cy="244.79" r="1.28"/><circle class="cls-3" cx="206.01" cy="244.79" r="1.28"/><circle class="cls-3" cx="220.41" cy="244.79" r="1.28"/><circle class="cls-3" cx="234.81" cy="244.79" r="1.28"/><circle class="cls-3" cx="249.21" cy="244.79" r="1.28"/><circle class="cls-3" cx="263.61" cy="244.79" r="1.28"/><circle class="cls-3" cx="278.01" cy="244.79" r="1.28"/><circle class="cls-3" cx="11.61" cy="259.19" r="1.28"/><circle class="cls-3" cx="26.01" cy="259.19" r="1.28"/><circle class="cls-3" cx="40.41" cy="259.19" r="1.28"/><circle class="cls-3" cx="54.81" cy="259.19" r="1.28"/><circle class="cls-3" cx="69.21" cy="259.19" r="1.28"/><circle class="cls-3" cx="83.61" cy="259.19" r="1.28"/><circle class="cls-3" cx="98.01" cy="259.19" r="1.28"/><circle class="cls-3" cx="112.41" cy="259.19" r="1.28"/><circle class="cls-3" cx="126.81" cy="259.19" r="1.28"/><circle class="cls-3" cx="141.21" cy="259.19" r="1.28"/><circle class="cls-3" cx="155.61" cy="259.19" r="1.28"/><circle class="cls-3" cx="170.01" cy="259.19" r="1.28"/><circle class="cls-3" cx="184.41" cy="259.19" r="1.28"/><circle class="cls-3" cx="198.81" cy="259.19" r="1.28"/><circle class="cls-3" cx="213.21" cy="259.19" r="1.28"/><circle class="cls-3" cx="227.61" cy="259.19" r="1.28"/><circle class="cls-3" cx="242.01" cy="259.19" r="1.28"/><circle class="cls-3" cx="256.41" cy="259.19" r="1.28"/><circle class="cls-3" cx="270.81" cy="259.19" r="1.28"/><circle class="cls-3" cx="285.21" cy="259.19" r="1.28"/><circle class="cls-3" cx="4.41" cy="273.59" r="1.28"/><circle class="cls-3" cx="18.81" cy="273.59" r="1.28"/><circle class="cls-3" cx="33.21" cy="273.59" r="1.28"/><circle class="cls-3" cx="47.61" cy="273.59" r="1.28"/><circle class="cls-3" cx="62.01" cy="273.59" r="1.28"/><circle class="cls-3" cx="76.41" cy="273.59" r="1.28"/><circle class="cls-3" cx="90.81" cy="273.59" r="1.28"/><circle class="cls-3" cx="105.21" cy="273.59" r="1.28"/><circle class="cls-3" cx="119.61" cy="273.59" r="1.28"/><circle class="cls-3" cx="134.01" cy="273.59" r="1.28"/><circle class="cls-3" cx="148.41" cy="273.59" r="1.28"/><circle class="cls-3" cx="162.81" cy="273.59" r="1.28"/><circle class="cls-3" cx="177.21" cy="273.59" r="1.28"/><circle class="cls-3" cx="191.61" cy="273.59" r="1.28"/><circle class="cls-3" cx="206.01" cy="273.59" r="1.28"/><circle class="cls-3" cx="220.41" cy="273.59" r="1.28"/><circle class="cls-3" cx="234.81" cy="273.59" r="1.28"/><circle class="cls-3" cx="249.21" cy="273.59" r="1.28"/><circle class="cls-3" cx="263.61" cy="273.59" r="1.28"/><circle class="cls-3" cx="278.01" cy="273.59" r="1.28"/><circle class="cls-3" cx="11.61" cy="287.99" r="1.28"/><circle class="cls-3" cx="26.01" cy="287.99" r="1.28"/><circle class="cls-3" cx="40.41" cy="287.99" r="1.28"/><circle class="cls-3" cx="54.81" cy="287.99" r="1.28"/><circle class="cls-3" cx="69.21" cy="287.99" r="1.28"/><circle class="cls-3" cx="83.61" cy="287.99" r="1.28"/><circle class="cls-3" cx="98.01" cy="287.99" r="1.28"/><circle class="cls-3" cx="112.41" cy="287.99" r="1.28"/><circle class="cls-3" cx="126.81" cy="287.99" r="1.28"/><circle class="cls-3" cx="141.21" cy="287.99" r="1.28"/><circle class="cls-3" cx="155.61" cy="287.99" r="1.28"/><circle class="cls-3" cx="170.01" cy="287.99" r="1.28"/><circle class="cls-3" cx="184.41" cy="287.99" r="1.28"/><circle class="cls-3" cx="198.81" cy="287.99" r="1.28"/><circle class="cls-3" cx="213.21" cy="287.99" r="1.28"/><circle class="cls-3" cx="227.61" cy="287.99" r="1.28"/><circle class="cls-3" cx="242.01" cy="287.99" r="1.28"/><circle class="cls-3" cx="256.41" cy="287.99" r="1.28"/><circle class="cls-3" cx="270.81" cy="287.99" r="1.28"/><circle class="cls-3" cx="285.21" cy="287.99" r="1.28"/></g></svg>